<svg width="112" height="112" viewBox="0 0 112 112" fill="none" xmlns="http://www.w3.org/2000/svg">
<path d="M98.1171 60.69V80.3134C98.1405 89.6934 92.0505 97.3934 83.8371 100.333V60.7834L98.1171 60.69ZM34.8138 37.2634C27.1838 37.4734 27.1838 48.6734 34.8138 48.86C42.4671 48.6734 42.4671 37.4734 34.8138 37.2634ZM79.2171 11.6667V100.333H13.8838V64.1434H13.9305V11.76C21.7471 11.76 79.2171 11.6667 79.2171 11.6667ZM37.5205 78.1434L33.8105 75.3434L29.8905 80.5L28.0238 78.7034L24.7805 82.0634L30.4271 87.5234L37.5205 78.1434ZM37.5205 64.1434L33.8105 61.3434L29.8905 66.5L28.0238 64.7034L24.7805 68.0634L30.4271 73.5234L37.5205 64.1434ZM34.8138 32.5967C21.0005 33.04 21.0005 53.1067 34.8138 53.5267C48.6505 53.1067 48.6505 33.04 34.8138 32.5967ZM67.4571 81.69H44.1238V86.3567H67.4571V81.69ZM67.4571 67.69H44.1238V72.3567H67.4571V67.69ZM68.5071 35C68.1105 22.68 50.2371 22.6567 49.8405 35V51.3334C50.2371 63.6767 68.1338 63.6767 68.5071 51.3334V35ZM54.5071 51.3334C54.6705 57.4934 63.6771 57.4934 63.8405 51.3334V45.4067H54.5071V51.3334ZM59.1738 30.3334C56.6071 30.3334 54.5071 32.4334 54.5071 35V40.74H63.8405V35C63.8405 32.4334 61.7405 30.3334 59.1738 30.3334Z" fill="black"/>
</svg>
