<svg width="112" height="112" viewBox="0 0 112 112" fill="none" xmlns="http://www.w3.org/2000/svg">
<path d="M63.9042 60.4762C62.6315 60.4762 61.5997 59.4444 61.5997 58.1717V47.64H50.3997V58.1717C50.3997 59.4444 49.3678 60.4762 48.0952 60.4762H37.5635V71.6532H48.0952C49.3678 71.6532 50.3997 72.685 50.3997 73.9577V84.4894H61.5766V73.9577C61.5766 72.685 62.6085 71.6532 63.8812 71.6532H74.4359V60.4762H63.9042Z" fill="black"/>
<path d="M96.0988 25.7701H15.9012C8.57284 25.7701 0 29.9413 0 41.6713V91.7487C0 103.479 8.57284 107.65 15.9012 107.65H96.0988C103.427 107.65 112 103.479 112 91.7487V41.6713C112 29.9413 103.45 25.7701 96.0988 25.7701ZM79.0453 72.8285C79.0453 74.7249 77.5079 76.2623 75.6115 76.2623H66.2091V85.6647C66.2091 87.5611 64.6716 89.0985 62.7753 89.0985H49.2247C47.3284 89.0985 45.791 87.5611 45.791 85.6647V76.2623H36.4115C34.5152 76.2749 32.9674 74.7479 32.9547 72.8516C32.9547 72.8438 32.9547 72.836 32.9547 72.8285V59.3009C32.9547 57.4046 34.4921 55.8672 36.3885 55.8672H45.791V46.4647C45.791 44.5684 47.3284 43.031 49.2247 43.031H62.7523C64.6486 43.031 66.186 44.5684 66.186 46.4647V55.8672H75.5885C77.4848 55.8545 79.0326 57.3816 79.0453 59.2779C79.0453 59.2857 79.0453 59.2932 79.0453 59.3009V72.8285Z" fill="black"/>
<path d="M70.8164 4.36102C70.5638 4.34662 70.3103 4.34662 70.0574 4.36102H41.9421C38.2442 4.1516 35.0767 6.97925 34.8672 10.6769C34.8528 10.9298 34.8528 11.183 34.8672 11.4359V21.8063H39.4763L39.4993 11.4359C39.4993 10.7676 39.4993 8.97007 41.9652 8.97007H70.0574C72.5232 8.97007 72.5232 10.7446 72.5232 11.4359V21.8063H77.1323V11.4359C77.342 7.73802 74.514 4.57073 70.8164 4.36102Z" fill="black"/>
</svg>
