<svg width="112" height="112" viewBox="0 0 112 112" fill="none" xmlns="http://www.w3.org/2000/svg">
<g clip-path="url(#clip0_112_2420)">
<path d="M55.9493 5.98566C53.7285 3.00256 50.159 0.0448437 44.7117 0C44.6764 0 44.6379 0 44.6027 0C36.8546 0 30.3017 6.66181 29.9686 14.9034C29.5713 24.635 36.8738 31.019 47.9258 40.35C53.4063 44.9743 53.7673 45.3412 55.9495 47.217C58.3096 45.1887 58.1081 45.3055 63.9636 40.3565C75.0219 31.0222 82.3277 24.6385 81.9335 14.9067C81.5999 6.66181 75.047 0 67.2989 0C67.2637 0 67.2252 0 67.1867 0C61.7363 0.0448437 58.1665 3.00256 55.9493 5.98566Z" fill="black"/>
<path d="M2.82187 67.9438L28.5031 94.2589C29.3563 95.7031 29.75 97.3438 29.75 98.9844V112H52.7188V65.114L31.1283 43.4654C28.5687 40.9063 24.3687 40.9063 21.8092 43.4654C19.2817 45.9928 19.3511 50.195 21.5469 52.3906C21.6125 52.5217 38.6092 69.5187 38.6092 69.5187L34.0156 74.1779L16.2312 56.3937C14.3935 54.556 13.3438 52.0623 13.3438 49.4375V26.4688C13.3438 22.8443 10.4057 19.9062 6.78125 19.9062C3.15678 19.9062 0 22.8443 0 26.4688V58.9531C0 64.5601 2.51497 67.2871 2.82187 67.9438Z" fill="black"/>
<path d="M105.219 19.9062C101.594 19.9062 98.6562 22.8443 98.6562 26.4688V49.4375C98.6562 52.0623 97.6065 54.556 95.7687 56.3937L77.9842 74.1779L73.3908 69.5187C73.3908 69.5187 90.3875 52.5217 90.4531 52.3906C92.6489 50.1948 92.7183 45.9928 90.1908 43.4654C87.6315 40.9063 83.4313 40.9063 80.8719 43.4654L59.2812 65.114V112H82.25V98.9844C82.25 97.3438 82.6438 95.7031 83.4969 94.2592L109.178 67.9438C109.485 67.2873 112 64.5463 112 58.9531V26.4688C112 22.8443 108.843 19.9062 105.219 19.9062Z" fill="black"/>
</g>
<defs>
<clipPath id="clip0_112_2420">
<rect width="112" height="112" fill="white"/>
</clipPath>
</defs>
</svg>
