<svg width="112" height="112" viewBox="0 0 112 112" fill="none" xmlns="http://www.w3.org/2000/svg">
<path d="M97.0669 11.2H70.9335C68.8727 11.2 67.2002 12.8725 67.2002 14.9333V37.3333C67.2002 39.3941 68.8727 41.0666 70.9335 41.0666H74.6669V47.5346C74.6669 49.1175 75.9511 50.4 77.5322 50.4C78.0978 50.4 78.6522 50.232 79.1226 49.9184L92.4002 41.0666H97.0669C99.1277 41.0666 100.8 39.3941 100.8 37.3333V14.9333C100.8 12.8725 99.1277 11.2 97.0669 11.2Z" fill="black"/>
<path d="M57.8669 9.33331H18.6669C14.5434 9.33331 11.2002 12.6765 11.2002 16.8V95.2C11.2002 99.3235 14.5434 102.667 18.6669 102.667H85.8669C89.9903 102.667 93.3335 99.3235 93.3335 95.2V52.2667H85.8669V76.5333H18.6669V16.8H57.8669V9.33331ZM52.2669 95.2C49.1757 95.2 46.6669 92.6912 46.6669 89.6C46.6669 86.5069 49.1757 84 52.2669 84C55.3581 84 57.8669 86.5069 57.8669 89.6C57.8669 92.6912 55.3581 95.2 52.2669 95.2Z" fill="black"/>
<path d="M44.8001 44.8C49.9547 44.8 54.1335 40.6212 54.1335 35.4666C54.1335 30.312 49.9547 26.1333 44.8001 26.1333C39.6455 26.1333 35.4668 30.312 35.4668 35.4666C35.4668 40.6212 39.6455 44.8 44.8001 44.8Z" fill="black"/>
<path d="M44.8005 50.4C33.8955 50.4 29.8672 59.7333 29.8672 69.0666H59.7339C59.7339 59.7333 55.7056 50.4 44.8005 50.4Z" fill="black"/>
</svg>
