<svg width="24" height="24" viewBox="0 0 24 24" fill="none" xmlns="http://www.w3.org/2000/svg">
<g clip-path="url(#clip0_117_94)">
<path d="M22.8967 12.0008L23.9497 9.25453C24.0652 8.95155 23.9752 8.60807 23.7217 8.40259L21.4388 6.55171L20.9769 3.64641C20.9259 3.32543 20.6739 3.07495 20.3529 3.02396L17.4476 2.56199L15.5982 0.277643C15.3942 0.0241601 15.0433 -0.0658337 14.7478 0.0496584L12 1.10409L9.25366 0.0511583C8.94918 -0.0658337 8.60871 0.0271599 8.40322 0.279143L6.55235 2.56349L3.64705 3.02545C3.32757 3.07645 3.07559 3.32843 3.02459 3.64791L2.56262 6.55321L0.278277 8.40409C0.0262942 8.60807 -0.0651995 8.95155 0.0502926 9.25453L1.10322 12.0008L0.0502926 14.7472C-0.0666995 15.0501 0.0262942 15.3936 0.278277 15.5976L2.56262 17.447L3.02459 20.3523C3.07559 20.6732 3.32607 20.9252 3.64705 20.9762L6.55235 21.4382L8.40322 23.721C8.60871 23.976 8.95219 24.066 9.25516 23.949L12 22.8976L14.7463 23.9505C14.8333 23.9835 14.9233 24 15.0148 24C15.2353 24 15.4527 23.9025 15.5982 23.721L17.4476 21.4382L20.3529 20.9762C20.6739 20.9252 20.9259 20.6732 20.9769 20.3523L21.4388 17.447L23.7217 15.5976C23.9752 15.3921 24.0652 15.0501 23.9497 14.7472L22.8967 12.0008Z" fill="#504E73"/>
<path d="M9.75033 10.5009C8.50992 10.5009 7.50049 9.49148 7.50049 8.25107C7.50049 7.01065 8.50992 6.00122 9.75033 6.00122C10.9908 6.00122 12.0002 7.01065 12.0002 8.25107C12.0002 9.49148 10.9908 10.5009 9.75033 10.5009ZM9.75033 7.50112C9.33636 7.50112 9.00039 7.8371 9.00039 8.25107C9.00039 8.66504 9.33636 9.00102 9.75033 9.00102C10.1643 9.00102 10.5003 8.66504 10.5003 8.25107C10.5003 7.8371 10.1643 7.50112 9.75033 7.50112Z" fill="#FAFAFA"/>
<path d="M14.2501 18.0004C13.0097 18.0004 12.0002 16.991 12.0002 15.7505C12.0002 14.5101 13.0097 13.5007 14.2501 13.5007C15.4905 13.5007 16.4999 14.5101 16.4999 15.7505C16.4999 16.991 15.4905 18.0004 14.2501 18.0004ZM14.2501 15.0006C13.8376 15.0006 13.5001 15.3381 13.5001 15.7505C13.5001 16.163 13.8376 16.5005 14.2501 16.5005C14.6626 16.5005 15 16.163 15 15.7505C15 15.3381 14.6626 15.0006 14.2501 15.0006Z" fill="#FAFAFA"/>
<path d="M8.25026 18.0004C8.09877 18.0004 7.94728 17.9554 7.81529 17.8609C7.47781 17.6194 7.39981 17.1515 7.6413 16.814L15.1408 6.31471C15.3823 5.97723 15.8502 5.89923 16.1877 6.14072C16.5252 6.3807 16.6017 6.85017 16.3617 7.18615L8.86222 17.6854C8.71373 17.8909 8.48424 18.0004 8.25026 18.0004Z" fill="#FAFAFA"/>
</g>
<defs>
<clipPath id="clip0_117_94">
<rect width="24" height="24" fill="white"/>
</clipPath>
</defs>
</svg>
