<svg width="62" height="62" viewBox="0 0 62 62" fill="none" xmlns="http://www.w3.org/2000/svg">
<path d="M10.5644 61.961H43.5554C46.9465 61.961 49.3204 60.3379 50.2287 57.4921C49.9624 57.509 49.6961 57.509 49.4293 57.4921H48.957C48.5479 57.4617 48.1419 57.3927 47.7459 57.286C44.8888 56.5061 42.9065 53.9132 42.9017 50.9519V25.8817H41.4239C40.7555 25.8817 40.2129 25.3391 40.2129 24.6707C40.2129 24.0019 40.7555 23.4592 41.4239 23.4592H50.6408V8.92583C50.6408 3.70603 47.0072 1.84088 43.5554 1.84088H37.6694V8.64736C37.6694 9.31578 37.1267 9.85841 36.4583 9.85841H17.6255C16.9567 9.85841 16.4141 9.31621 16.4141 8.64736V1.82874H10.5644C7.13691 1.82874 3.47949 3.69388 3.47949 8.91412V54.9364C3.47949 60.0473 7.13691 61.961 10.5644 61.961ZM16.814 18.7604H37.3063C37.9747 18.7604 38.5173 19.303 38.5173 19.9714C38.5173 20.6403 37.9747 21.1824 37.3063 21.1824H16.814C16.1456 21.1824 15.6029 20.6403 15.6029 19.9714C15.6029 19.303 16.1456 18.7604 16.814 18.7604ZM16.814 25.5183H37.3063C37.9747 25.5183 38.5173 26.0609 38.5173 26.7293C38.5173 27.3982 37.9747 27.9408 37.3063 27.9408H16.814C16.1456 27.9408 15.6029 27.3982 15.6029 26.7293C15.6029 26.0609 16.1456 25.5183 16.814 25.5183ZM16.814 32.2766H37.3063C37.9747 32.2766 38.5173 32.8188 38.5173 33.4876C38.5173 34.1561 37.9747 34.6987 37.3063 34.6987H16.814C16.1456 34.6987 15.6029 34.1561 15.6029 33.4876C15.6029 32.8192 16.1456 32.2766 16.814 32.2766ZM16.814 39.0345H37.3063C37.9747 39.0345 38.5173 39.5771 38.5173 40.2455C38.5173 40.914 37.9747 41.4566 37.3063 41.4566H16.814C16.1456 41.4566 15.6029 40.9144 15.6029 40.2455C15.6029 39.5771 16.1456 39.0345 16.814 39.0345ZM16.814 45.7924H37.3063C37.9747 45.7924 38.5173 46.335 38.5173 47.0034C38.5173 47.6723 37.9747 48.2149 37.3063 48.2149H16.814C16.1456 48.2149 15.6029 47.6723 15.6029 47.0034C15.6029 46.335 16.1456 45.7924 16.814 45.7924Z" fill="black"/>
<path d="M18.873 1.82871V7.412H35.2473V0H18.873V1.82871Z" fill="black"/>
<path d="M53.5714 39.4583H45.2871V51.0365C45.304 52.9732 46.6461 54.6457 48.5329 55.0817C50.8049 55.5241 53.0045 54.0402 53.4465 51.7682C53.4938 51.5236 53.5202 51.2742 53.5228 51.0248L53.5714 39.4583Z" fill="black"/>
<path d="M57.4354 25.8939H50.6289V23.4718H57.4354C58.1038 23.4718 58.6464 24.014 58.6464 24.6828C58.6464 25.3513 58.1038 25.8939 57.4354 25.8939Z" fill="black"/>
</svg>
