<svg width="72" height="72" viewBox="0 0 72 72" fill="none" xmlns="http://www.w3.org/2000/svg">
<path d="M71.2473 19.8682C70.0481 15.1655 67.4921 11.1105 63.8557 8.14142C60.3131 5.24927 55.9735 3.65625 51.6361 3.65625C48.3106 3.65625 45.1388 4.55164 42.2082 6.31714C39.8939 7.71185 37.812 9.60864 35.9938 11.9762C31.858 6.58575 26.3978 3.65625 20.3586 3.65625C16.0228 3.65625 11.6849 5.24927 8.1429 8.14142C4.50752 11.1105 1.9521 15.165 0.752947 19.8677C-0.126509 23.3168 -0.526961 28.1574 1.20833 33.9791H12.1051L16.0399 26.109C16.3975 25.3944 17.1275 24.9428 17.9262 24.9428C18.7255 24.9428 19.4555 25.3944 19.8126 26.109L26.9625 40.4083L34.1124 26.109C34.4694 25.3944 35.1995 24.9428 35.9987 24.9428C36.7974 24.9428 37.5275 25.3944 37.8851 26.109L41.8198 33.9791H56.5113C57.6764 33.9791 58.6201 34.9233 58.6201 36.0879C58.6201 37.253 57.6764 38.1973 56.5113 38.1973H40.5163C39.7176 38.1973 38.9876 37.7457 38.63 37.0311L35.9987 31.7681L28.8488 46.0673C28.4912 46.782 27.7612 47.233 26.9625 47.233C26.1632 47.233 25.4332 46.782 25.0761 46.0673L17.9268 31.7681L15.295 37.0316C14.9374 37.7457 14.2074 38.1973 13.4086 38.1973H2.78816C3.49294 39.7606 4.35427 41.3789 5.40016 43.0461C11.1416 52.2026 21.0952 60.6868 34.9831 68.2625C35.2978 68.4344 35.6455 68.5201 35.9932 68.5201C36.341 68.5201 36.6881 68.4344 37.0029 68.263C50.8951 60.6863 60.8515 52.2026 66.5957 43.0466C72.8018 33.1534 72.5508 24.9818 71.2473 19.8682Z" fill="black"/>
</svg>
