<svg width="72" height="72" viewBox="0 0 72 72" fill="none" xmlns="http://www.w3.org/2000/svg">
<path d="M37.9053 12.0684V7.45453C37.9053 6.6524 38.5782 5.97937 39.3803 5.97937C40.1833 5.97937 40.8573 6.65142 40.8573 7.45453V12.0684C40.8573 12.8721 40.184 13.545 39.3803 13.545C38.5775 13.545 37.9053 12.8711 37.9053 12.0684ZM17.326 13.545C18.1297 13.545 18.803 12.8722 18.803 12.0684V7.45453C18.803 6.65142 18.129 5.97937 17.326 5.97937C16.5239 5.97937 15.851 6.6524 15.851 7.45453V12.0684C15.8511 12.8711 16.5233 13.545 17.326 13.545ZM35.2027 52.0172C35.2027 43.2674 41.9085 35.9212 50.6167 35.1311L50.8725 35.1079V24.1875H5.83594V49.3692C5.83594 53.1776 8.93334 56.2753 12.7418 56.2753H35.741L35.659 55.9294C35.3557 54.6476 35.2027 53.3344 35.2027 52.0172ZM50.8725 18.1448C50.8725 14.3873 47.8524 11.3122 44.0966 11.2416L43.81 11.2362V12.0686C43.81 14.5107 41.8223 16.4983 39.3803 16.4983C36.9381 16.4983 34.9519 14.5105 34.9519 12.0686V11.2387H21.7565V12.0686C21.7565 14.5114 19.7688 16.4983 17.3261 16.4983C14.8842 16.4983 12.8984 14.5101 12.8984 12.0686V11.2362L12.612 11.2416C8.856 11.3122 5.83594 14.3873 5.83594 18.1448V21.2342H50.8725V18.1448ZM66.1641 52.0172C66.1641 59.7388 59.8818 66.0206 52.1603 66.0206C44.4383 66.0206 38.1554 59.7396 38.1554 52.0172C38.1554 44.2948 44.4383 38.0139 52.1603 38.0139C59.8819 38.0139 66.1641 44.2956 66.1641 52.0172ZM53.6372 42.9117C53.6372 42.0957 52.9765 41.4352 52.1605 41.4352C51.3442 41.4352 50.6838 42.0952 50.6838 42.9117V51.5458L46.8592 56.9289C46.3866 57.5942 46.5427 58.5153 47.208 58.988C47.4587 59.1661 47.7537 59.2608 48.0613 59.2608C48.5407 59.2608 48.9883 59.0311 49.2666 58.6394L53.3638 52.8722C53.5413 52.6224 53.6372 52.3236 53.6372 52.017V42.9117Z" fill="black"/>
</svg>
