<svg width="72" height="72" viewBox="0 0 72 72" fill="none" xmlns="http://www.w3.org/2000/svg">
<path d="M32.625 58.5C33.2463 58.5 33.75 57.9963 33.75 57.375C33.75 56.7537 33.2463 56.25 32.625 56.25C32.0037 56.25 31.5 56.7537 31.5 57.375C31.5 57.9963 32.0037 58.5 32.625 58.5Z" fill="black"/>
<path d="M37.1587 50.6587L33.75 49.14V54.2025C35.055 54.675 36 55.9125 36 57.375C36 59.2313 34.4813 60.75 32.625 60.75C30.7687 60.75 29.25 59.2313 29.25 57.375C29.25 55.9125 30.195 54.675 31.5 54.2025V48.1388L30.375 47.6437V44.7075C32.1525 43.4588 33.4013 41.49 33.6825 39.24C35.6513 38.7563 37.125 36.99 37.125 34.875V31.5C37.125 25.3012 32.0737 20.25 25.875 20.25C19.6762 20.25 14.625 25.3012 14.625 31.5V34.875C14.625 36.99 16.0987 38.7563 18.0675 39.24C18.3487 41.49 19.5975 43.4588 21.375 44.7075V47.6437L20.25 48.1388V54.2025C21.555 54.675 22.5 55.9125 22.5 57.375V59.625C22.5 60.2438 21.9937 60.75 21.375 60.75C20.7563 60.75 20.25 60.2438 20.25 59.625V57.375C20.25 56.7562 19.7437 56.25 19.125 56.25C18.5062 56.25 18 56.7562 18 57.375V59.625C18 60.2438 17.4938 60.75 16.875 60.75C16.2562 60.75 15.75 60.2438 15.75 59.625V57.375C15.75 55.9125 16.695 54.675 18 54.2025V49.14L14.5913 50.6587C12.5663 51.5587 11.25 53.5837 11.25 55.8V63H40.5V55.8C40.5 53.5837 39.1837 51.5587 37.1587 50.6587ZM20.25 38.25V33.75H24.75C25.0538 33.75 25.335 33.6262 25.5487 33.4237L27 31.9613L28.4513 33.4237C28.665 33.6262 28.9463 33.75 29.25 33.75H31.5V38.25C31.5 41.355 28.98 43.875 25.875 43.875C22.77 43.875 20.25 41.355 20.25 38.25ZM28.125 47.7675L25.875 49.275L23.625 47.7675V45.7987C24.3337 46.0012 25.0875 46.125 25.875 46.125C26.6625 46.125 27.4163 46.0012 28.125 45.7987V47.7675Z" fill="black"/>
<path d="M49.5 13.5V10.125C49.5 5.7825 45.9675 2.25 41.625 2.25H10.125C5.7825 2.25 2.25 5.7825 2.25 10.125V61.875C2.25 66.2175 5.7825 69.75 10.125 69.75H41.625C45.9675 69.75 49.5 66.2175 49.5 61.875V40.5H45V60.75C45 63.2363 42.9863 65.25 40.5 65.25H11.25C8.76375 65.25 6.75 63.2363 6.75 60.75V11.25C6.75 8.76375 8.76375 6.75 11.25 6.75H19.125C19.4287 6.75 19.71 6.87375 19.9237 7.07625L21.8363 9H29.9137L31.8263 7.07625C32.04 6.87375 32.3213 6.75 32.625 6.75H40.5C42.9863 6.75 45 8.76375 45 11.25V13.5H49.5Z" fill="black"/>
<path d="M66.375 15.75H43.875C42.0188 15.75 40.5 17.2688 40.5 19.125V34.875C40.5 36.7313 42.0188 38.25 43.875 38.25H51.1875L54.225 42.3C54.4388 42.5812 54.765 42.75 55.125 42.75C55.485 42.75 55.8112 42.5812 56.025 42.3L59.0625 38.25H66.375C68.2313 38.25 69.75 36.7313 69.75 34.875V19.125C69.75 17.2688 68.2313 15.75 66.375 15.75ZM61.875 31.5H48.375C47.7562 31.5 47.25 30.9937 47.25 30.375C47.25 29.7563 47.7562 29.25 48.375 29.25H61.875C62.4937 29.25 63 29.7563 63 30.375C63 30.9937 62.4937 31.5 61.875 31.5ZM61.875 24.75H48.375C47.7562 24.75 47.25 24.2437 47.25 23.625C47.25 23.0062 47.7562 22.5 48.375 22.5H61.875C62.4937 22.5 63 23.0062 63 23.625C63 24.2437 62.4937 24.75 61.875 24.75Z" fill="black"/>
</svg>
