<svg width="72" height="72" viewBox="0 0 72 72" fill="none" xmlns="http://www.w3.org/2000/svg">
<path d="M24.75 27C20.7449 27 16.8298 28.1876 13.4997 30.4127C10.1696 32.6378 7.57412 35.8005 6.04145 39.5007C4.50877 43.2009 4.10776 47.2725 4.88911 51.2006C5.67046 55.1287 7.59908 58.7369 10.4311 61.5689C13.2631 64.4009 16.8713 66.3296 20.7994 67.1109C24.7275 67.8923 28.7991 67.4912 32.4993 65.9586C36.1996 64.4259 39.3622 61.8304 41.5873 58.5003C43.8124 55.1702 45 51.2551 45 47.25C45 44.5907 44.4762 41.9575 43.4586 39.5007C42.4409 37.0438 40.9493 34.8115 39.0689 32.9311C37.1885 31.0507 34.9562 29.5591 32.4993 28.5414C30.0425 27.5238 27.4093 27 24.75 27ZM15.3225 59.85C14.1237 58.9439 13.0561 57.8763 12.15 56.6775L34.1775 34.65C35.3763 35.5561 36.4439 36.6237 37.35 37.8225L15.3225 59.85Z" fill="black"/>
<path d="M54 4.5C50.4196 4.5 46.9858 5.92232 44.4541 8.45406C41.9223 10.9858 40.5 14.4196 40.5 18V28.17C43.7485 30.8546 46.2578 34.3242 47.79 38.25H63V54C62.9995 55.9286 62.3795 57.806 61.2313 59.3556C60.0832 60.9052 58.4677 62.045 56.6228 62.607C54.7779 63.169 52.8013 63.1236 50.9842 62.4773C49.1671 61.8311 47.6057 60.6182 46.53 59.0175C45.7724 60.4205 44.8914 61.7533 43.8975 63C45.717 65.0528 48.1188 66.5025 50.7828 67.1563C53.4469 67.81 56.2469 67.6366 58.81 66.6593C61.3731 65.6819 63.5776 63.947 65.1301 61.6854C66.6825 59.4239 67.5092 56.7431 67.5 54V18C67.5 14.4196 66.0777 10.9858 63.5459 8.45406C61.0142 5.92232 57.5804 4.5 54 4.5Z" fill="black"/>
</svg>
