<svg width="72" height="72" viewBox="0 0 72 72" fill="none" xmlns="http://www.w3.org/2000/svg">
<path d="M44.5781 4.36249H6.32812C2.82642 4.36249 0 7.18891 0 10.6906V36.0031C0 39.5045 2.82642 42.3312 6.32812 42.3312H8.4375V48.6594C8.4375 50.1833 10.0155 51.2869 11.5594 50.5156C11.6016 50.4734 11.6861 50.4734 11.7283 50.4311C23.3321 42.6496 20.7315 44.3846 23.3298 42.6686C23.6672 42.4577 24.0469 42.3312 24.4688 42.3312H44.5781C48.0798 42.3312 50.9062 39.5045 50.9062 36.0031V10.6906C50.9062 7.18891 48.0798 4.36249 44.5781 4.36249ZM27.7031 29.675H10.5469C7.7663 29.675 7.75491 25.4562 10.5469 25.4562H27.7031C30.4837 25.4562 30.4951 29.675 27.7031 29.675ZM40.3594 21.2375H10.5469C7.7663 21.2375 7.75491 17.0187 10.5469 17.0187H40.3594C43.14 17.0187 43.1513 21.2375 40.3594 21.2375Z" fill="black"/>
<path d="M65.6719 21.2375H55.125V36.0031C55.125 41.825 50.4 46.55 44.5781 46.55H25.1016L21.0938 49.2078V52.8781C21.0938 56.3795 23.9202 59.2062 27.4219 59.2062H48.1639L60.2717 67.3061C61.9244 68.2237 63.5625 67.1078 63.5625 65.5344V59.2062H65.6719C69.1736 59.2062 72 56.3795 72 52.8781V27.5656C72 24.0641 69.1736 21.2375 65.6719 21.2375Z" fill="black"/>
</svg>
