<svg width="72" height="72" viewBox="0 0 72 72" fill="none" xmlns="http://www.w3.org/2000/svg">
<g clip-path="url(#clip0_62_195)">
<path d="M69.0003 0H38.9997C37.3509 0 36 1.35088 36 2.99971V20.9997C36 22.6494 37.3509 24.0003 38.9997 24.0003H69.0003C70.6491 24.0003 72 22.6494 72 20.9997V2.99971C72 1.35088 70.6491 0 69.0003 0Z" fill="black"/>
<path d="M33.0003 47.9998H2.99971C1.35088 47.9998 0 49.3506 0 51.0003V69.0003C0 70.6492 1.35088 72 2.99971 72H33.0003C34.6491 72 36 70.6492 36 69.0003V51.0003C36 49.3506 34.6491 47.9998 33.0003 47.9998Z" fill="black"/>
<path d="M21.0032 15.0003H29.9997V9H21.0032C14.3766 9 9 14.3703 9 20.9971V31.7575L4.24266 27.0028L0 31.2453L9.87926 41.121C11.0484 42.2928 12.9491 42.2928 14.1219 41.121L24.0012 31.2418L19.7576 27L15.0003 31.7573L15.0029 20.9969C15.0029 17.6832 17.6896 15.0003 21.0032 15.0003Z" fill="black"/>
<path d="M62.1207 30.8789C60.9516 29.7072 59.0508 29.7072 57.878 30.8789L47.9997 40.7573L52.2423 45L56.9997 40.2426L56.997 51.0031C56.997 54.3169 54.3106 56.9999 50.9967 56.9999H42.0002V63H50.9967C57.6235 63 63 57.6297 63 51.0029V40.2425L67.7573 44.9972L72 40.7545L62.1207 30.8789Z" fill="black"/>
</g>
<defs>
<clipPath id="clip0_62_195">
<rect width="72" height="72" fill="white"/>
</clipPath>
</defs>
</svg>
