<svg width="72" height="72" viewBox="0 0 72 72" fill="none" xmlns="http://www.w3.org/2000/svg">
<g clip-path="url(#clip0_62_135)">
<path d="M12.7307 41.1387V45.6968H7.76616C2.671 45.6968 2.671 53.4484 7.76616 53.4484H12.7307V57.9919H9.90003C9.02907 57.9919 8.50649 58.921 8.92745 59.6758L15.721 71.4339C16.1565 72.1742 17.2452 72.1742 17.6662 71.4339L21.0629 65.5549L24.4597 59.6758C24.8952 58.9355 24.3581 57.9919 23.4871 57.9919H20.4823V53.4484H25.4468C30.542 53.4484 30.542 45.6968 25.4468 45.6968H20.4823V41.1968C22.3549 40.7323 24.0678 39.9484 25.6065 38.9032C31.021 44.2597 37.0742 48.9339 41.1387 52.0694C41.5452 52.3887 42.1113 52.3887 42.5178 52.0694C47.642 48.1065 56.221 41.4726 62.492 34.1419C65.9178 30.1355 68.342 26.2887 69.721 22.6887C71.3758 18.3629 71.55 14.2839 70.2581 10.5387C69.242 7.67904 67.5581 5.31291 65.25 3.48388C63.1452 1.82904 60.5468 0.696783 57.7452 0.232267C54.6968 -0.275797 51.5323 0.0290413 48.6146 1.08872C45.9871 2.04678 43.65 3.58549 41.8065 5.60323C39.9629 3.60001 37.6404 2.04678 34.9984 1.08872C32.0807 0.0290413 28.9162 -0.261281 25.8678 0.232267C23.0807 0.696783 20.4823 1.82904 18.3629 3.48388C16.0839 5.28388 14.4145 7.62098 13.4275 10.4371C6.28552 11.9468 0.914551 18.2903 0.914551 25.8823C0.914551 33.0823 5.821 39.3678 12.7307 41.1387ZM16.6936 15.6048C22.3694 15.6048 26.971 20.2065 26.971 25.8823C26.971 31.5581 22.3549 36.1597 16.6936 36.1597C16.6791 36.1597 16.6791 36.1597 16.6791 36.1597C10.9307 36.0871 6.41616 31.5726 6.41616 25.8823C6.40165 20.2065 11.0178 15.6048 16.6936 15.6048Z" fill="#030403"/>
</g>
<defs>
<clipPath id="clip0_62_135">
<rect width="72" height="72" fill="white"/>
</clipPath>
</defs>
</svg>
