<svg width="72" height="72" viewBox="0 0 72 72" fill="none" xmlns="http://www.w3.org/2000/svg">
<path fill-rule="evenodd" clip-rule="evenodd" d="M20.6384 67.3108H11.7574C10.8254 67.3108 10.0706 66.5559 10.0706 65.624V60.6792H22.3252V65.6241C22.3252 66.5553 21.5704 67.3108 20.6384 67.3108Z" fill="black"/>
<path fill-rule="evenodd" clip-rule="evenodd" d="M24.3782 58.4291H8.0179C7.08595 58.4291 6.33105 57.6742 6.33105 56.7422V25.4245C6.33105 24.4926 7.08595 23.7377 8.0179 23.7377H24.3782C25.3102 23.7377 26.0651 24.4926 26.0651 25.4245V30.6998H19.9064C18.9744 30.6998 18.2197 31.4547 18.2197 32.3866C18.2197 33.3186 18.9744 34.0735 19.9064 34.0735H26.0651V36.4976H17.3666C16.4353 36.4976 15.6799 37.2525 15.6799 38.1845C15.6799 39.1164 16.4353 39.8713 17.3666 39.8713H26.0651V42.2948H19.9064C18.9744 42.2948 18.2197 43.0497 18.2197 43.9816C18.2197 44.9136 18.9744 45.6685 19.9064 45.6685H26.0651V48.0932H17.3666C16.4353 48.0932 15.6799 48.8481 15.6799 49.7801C15.6799 50.712 16.4353 51.4669 17.3666 51.4669H26.0651V56.7429C26.0651 57.674 25.3095 58.4291 24.3782 58.4291Z" fill="black"/>
<path fill-rule="evenodd" clip-rule="evenodd" d="M25.7804 71.9852H6.61556C5.6836 71.9852 4.92871 71.2303 4.92871 70.2984V65.624C4.92871 64.6921 5.6836 63.9372 6.61556 63.9372L25.7804 63.937C26.7123 63.937 27.4672 64.6919 27.4672 65.6239V70.2982C27.4672 71.2302 26.712 71.9852 25.7804 71.9852Z" fill="black"/>
<path fill-rule="evenodd" clip-rule="evenodd" d="M11.5982 15.4311C12.0782 13.4277 13.8839 11.9342 16.0325 11.9342H16.3627C18.5113 11.9342 20.3172 13.4277 20.7974 15.4311H11.5982Z" fill="black"/>
<path fill-rule="evenodd" clip-rule="evenodd" d="M8.97778 21.4881V19.3679C8.97778 18.4359 9.73334 17.681 10.6646 17.681H21.7321C22.1794 17.681 22.6089 17.8586 22.9251 18.1748C23.2416 18.4916 23.4189 18.9203 23.4189 19.3679V21.4881L8.97778 21.4881Z" fill="black"/>
<path fill-rule="evenodd" clip-rule="evenodd" d="M16.0333 15.3078C15.1013 15.3078 14.3464 14.5529 14.3464 13.621V1.70149C14.3464 0.769542 15.1013 0.0146484 16.0333 0.0146484C16.9652 0.0146484 17.72 0.769542 17.72 1.70149V13.621C17.7193 14.5529 16.9646 15.3078 16.0333 15.3078Z" fill="black"/>
<path fill-rule="evenodd" clip-rule="evenodd" d="M47.5037 58.3321C46.5718 58.3321 45.8169 57.5772 45.8169 56.6453V45.6703C45.8169 44.7384 46.5718 43.9836 47.5037 43.9836C48.4357 43.9836 49.1906 44.7384 49.1906 45.6703V56.6457C49.1906 57.577 48.4355 58.3321 47.5037 58.3321Z" fill="black"/>
<path fill-rule="evenodd" clip-rule="evenodd" d="M47.5037 47.3574C47.2126 47.3574 46.9216 47.282 46.6603 47.1314L38.2854 42.2964C37.7637 41.9946 37.4426 41.4384 37.4426 40.8356V31.1647C37.4426 30.5619 37.7643 30.0057 38.2854 29.7039L46.6603 24.8684C47.1835 24.5666 47.8255 24.5666 48.3472 24.8684L56.7232 29.7039C57.2449 30.0057 57.566 30.5619 57.566 31.1647V40.8351C57.566 41.4379 57.2443 41.9941 56.7232 42.2959L48.3472 47.1314C48.0859 47.282 47.7949 47.3574 47.5037 47.3574Z" fill="black"/>
<path fill-rule="evenodd" clip-rule="evenodd" d="M47.5037 28.0158C46.5718 28.0158 45.8169 27.2609 45.8169 26.3289V15.354C45.8169 14.422 46.5718 13.6671 47.5037 13.6671C48.4357 13.6671 49.1906 14.422 49.1906 15.354V26.3289C49.1906 27.2607 48.4355 28.0158 47.5037 28.0158Z" fill="black"/>
<path fill-rule="evenodd" clip-rule="evenodd" d="M55.8809 32.8518C55.2976 32.8518 54.7306 32.549 54.4183 32.0083C53.9527 31.202 54.229 30.1699 55.0357 29.7041L64.5405 24.2167C65.3487 23.7512 66.3795 24.0281 66.8451 24.8341C67.3106 25.6405 67.0344 26.6724 66.2277 27.1383L56.7228 32.6257C56.4566 32.7787 56.1666 32.8518 55.8809 32.8518Z" fill="black"/>
<path fill-rule="evenodd" clip-rule="evenodd" d="M65.3818 48.0095C65.0959 48.0095 64.8059 47.9363 64.5395 47.7828L55.0354 42.2959C54.229 41.8304 53.9524 40.7983 54.418 39.9912C54.883 39.1842 55.9143 38.9076 56.7225 39.3739L66.2274 44.8613C67.0337 45.3268 67.3103 46.3589 66.8447 47.166C66.5321 47.7073 65.9651 48.0095 65.3818 48.0095Z" fill="black"/>
<path fill-rule="evenodd" clip-rule="evenodd" d="M29.626 48.0097C29.0427 48.0097 28.4758 47.7069 28.1634 47.1662C27.6978 46.3592 27.9742 45.3272 28.7807 44.8617L38.2856 39.3741C39.0945 38.9079 40.1254 39.1849 40.5903 39.9915C41.0557 40.7987 40.7795 41.8306 39.9728 42.2962L30.4676 47.7836C30.2023 47.9364 29.9117 48.0097 29.626 48.0097Z" fill="black"/>
<path fill-rule="evenodd" clip-rule="evenodd" d="M39.1271 32.8518C38.8414 32.8518 38.5514 32.7786 38.2849 32.6257L28.78 27.1384C27.9736 26.6728 27.6964 25.6407 28.1627 24.8341C28.6277 24.0276 29.6598 23.7506 30.4669 24.2168L39.972 29.7042C40.7786 30.1697 41.055 31.2017 40.5896 32.0084C40.2773 32.549 39.71 32.8518 39.1271 32.8518Z" fill="black"/>
</svg>
