<svg width="229" height="67" viewBox="0 0 229 67" fill="none" xmlns="http://www.w3.org/2000/svg">
<path d="M90.1462 16.7331V34.098H98.9108V35.9057H88.229V16.7331H90.1462ZM106.593 29.387V16.7331H108.51V29.387C108.51 30.9391 108.966 32.1625 109.879 33.0572C110.811 33.9336 112.089 34.3719 113.714 34.3719C115.339 34.3719 116.608 33.9336 117.521 33.0572C118.452 32.1625 118.918 30.9391 118.918 29.387V16.7331H120.835V29.387C120.835 31.4686 120.178 33.1302 118.863 34.3719C117.53 35.6135 115.814 36.2343 113.714 36.2343C111.614 36.2343 109.898 35.6135 108.565 34.3719C107.25 33.1302 106.593 31.4686 106.593 29.387ZM145.572 16.7331H147.955V35.9057H146.038V19.6364L139.327 30.866H139.053L132.343 19.6364V35.9057H130.426V16.7331H132.809L139.19 27.415L145.572 16.7331ZM157.81 35.9057V16.7331H159.727V35.9057H157.81ZM181.925 32.3451V16.7331H183.842V35.9057H182.199L171.517 20.2938V35.9057H169.6V16.7331H171.243L181.925 32.3451ZM195.611 27.1411V34.098H204.924V35.9057H193.694V16.7331H204.787V18.5408H195.611V25.3334H204.102V27.1411H195.611ZM220.543 26.0181L226.842 35.9057H224.651L219.447 27.7163L214.243 35.9057H212.052L218.352 26.0181L212.463 16.7331H214.627L219.447 24.2926L224.268 16.7331H226.432L220.543 26.0181Z" fill="#59537C"/>
<path d="M126.928 53.8188H125.501L123.377 46.3081H124.675L126.252 52.1772L127.958 46.3081H129.096L130.791 52.1772L132.368 46.3081H133.666L131.542 53.8188H130.115L128.527 48.336L126.928 53.8188ZM138.012 50.6106V52.6385H141.338V53.8188H136.778V46.3081H141.285V47.4883H138.012V49.4411H141.016V50.6106H138.012ZM145.848 46.3081V52.6385H148.906V53.8188H144.614V46.3081H145.848ZM153.201 46.3081V52.6385H156.259V53.8188H151.967V46.3081H153.201ZM163.827 51.4046V46.3081H165.061V53.8188H164.095L160.555 48.7222V53.8188H159.321V46.3081H160.286L163.827 51.4046ZM169.941 50.6106V52.6385H173.267V53.8188H168.707V46.3081H173.214V47.4883H169.941V49.4411H172.945V50.6106H169.941ZM179.043 53.9583C178.32 53.9583 177.705 53.7973 177.197 53.4754C176.696 53.1464 176.346 52.6922 176.146 52.1128L177.208 51.4905C177.508 52.3345 178.131 52.7566 179.075 52.7566C179.533 52.7566 179.88 52.6671 180.116 52.4883C180.352 52.3095 180.47 52.0699 180.47 51.7694C180.47 51.469 180.344 51.2365 180.094 51.072C179.844 50.9075 179.4 50.7287 178.764 50.5355C178.113 50.3424 177.587 50.1135 177.186 49.8488C176.7 49.5055 176.457 49.0012 176.457 48.336C176.457 47.6707 176.693 47.145 177.165 46.7587C177.63 46.3653 178.199 46.1686 178.871 46.1686C179.465 46.1686 179.987 46.3152 180.437 46.6085C180.895 46.8946 181.246 47.2988 181.489 47.8209L180.448 48.4218C180.133 47.7208 179.608 47.3703 178.871 47.3703C178.513 47.3703 178.227 47.4561 178.013 47.6278C177.798 47.7923 177.691 48.0177 177.691 48.3038C177.691 48.5827 177.798 48.8045 178.013 48.969C178.227 49.1264 178.624 49.2945 179.204 49.4733C179.561 49.5949 179.769 49.6664 179.826 49.6879C179.919 49.7165 180.105 49.788 180.384 49.9025C180.613 49.9955 180.795 50.0956 180.931 50.2029C181.489 50.6393 181.746 51.1543 181.704 51.748C181.704 52.4275 181.457 52.9676 180.963 53.3681C180.484 53.7616 179.844 53.9583 179.043 53.9583ZM187.172 53.9583C186.449 53.9583 185.834 53.7973 185.326 53.4754C184.825 53.1464 184.475 52.6922 184.275 52.1128L185.337 51.4905C185.637 52.3345 186.26 52.7566 187.204 52.7566C187.662 52.7566 188.008 52.6671 188.244 52.4883C188.481 52.3095 188.599 52.0699 188.599 51.7694C188.599 51.469 188.473 51.2365 188.223 51.072C187.973 50.9075 187.529 50.7287 186.893 50.5355C186.242 50.3424 185.716 50.1135 185.315 49.8488C184.829 49.5055 184.586 49.0012 184.586 48.336C184.586 47.6707 184.822 47.145 185.294 46.7587C185.759 46.3653 186.327 46.1686 187 46.1686C187.594 46.1686 188.116 46.3152 188.566 46.6085C189.024 46.8946 189.375 47.2988 189.618 47.8209L188.577 48.4218C188.262 47.7208 187.737 47.3703 187 47.3703C186.642 47.3703 186.356 47.4561 186.141 47.6278C185.927 47.7923 185.82 48.0177 185.82 48.3038C185.82 48.5827 185.927 48.8045 186.141 48.969C186.356 49.1264 186.753 49.2945 187.332 49.4733C187.69 49.5949 187.898 49.6664 187.955 49.6879C188.048 49.7165 188.234 49.788 188.513 49.9025C188.742 49.9955 188.924 50.0956 189.06 50.2029C189.618 50.6393 189.875 51.1543 189.832 51.748C189.832 52.4275 189.586 52.9676 189.092 53.3681C188.613 53.7616 187.973 53.9583 187.172 53.9583Z" fill="#59537C"/>
<rect x="195.587" y="49.4479" width="31.8055" height="0.643775" fill="#59537C"/>
<rect x="86.0378" y="49.4479" width="31.8055" height="0.643775" fill="#59537C"/>
<path d="M13.6922 21.1739C15.7484 21.3284 15.7745 21.3284 15.4361 18.9338C15.1498 16.8481 15.2799 14.7368 14.8635 12.6512C14.7073 11.853 13.8744 11.0033 14.2648 10.3853C14.6813 9.71584 15.7745 10.3081 16.5553 10.1536C21.1364 9.20087 25.4311 9.92183 29.4135 12.3679C30.0642 12.7541 30.3245 12.5997 30.4546 11.8787C30.9492 8.7889 32.5629 6.29131 34.8014 4.15419C36.1028 2.89252 37.5344 1.7596 38.6536 0.343436C39.0701 -0.171532 39.4085 -0.068535 39.7729 0.394935C40.84 1.7081 42.1415 2.78953 43.3908 3.92246C45.8115 6.11107 47.4513 8.71165 47.9719 11.9302C48.102 12.7541 48.3623 12.8314 49.0391 12.4194C52.9433 10.0248 57.16 9.27812 61.6369 10.1536C62.4698 10.3081 63.6411 9.79308 64.0315 10.5398C64.2918 11.0805 63.6671 12.0332 63.4849 12.8314C62.9123 15.3805 63.4068 18.0583 62.652 20.6074C62.4698 21.2511 62.9383 21.3026 63.4068 21.2769C64.5261 21.2254 65.6453 21.1224 66.7906 21.1481C69.7318 21.1739 72.3607 22.7188 75.3019 22.8732C76.0307 22.9247 75.8745 23.4397 75.5101 23.9032C74.0786 25.8601 74.3128 26.478 76.7335 27.1475C77.0198 27.2247 77.3322 27.2762 77.6185 27.3535C78.3212 27.508 78.5034 27.9199 78.0349 28.4606C75.5622 31.3445 73.8443 34.769 71.1894 37.5241C69.8359 38.9402 68.2742 40.0989 66.5303 41.0001C65.9056 41.3348 65.5152 41.6181 66.4262 42.0558C70.4346 43.9869 72.5689 47.4629 74.2087 51.3509C74.469 51.9689 74.3909 52.3551 73.6361 52.4066C71.9703 52.5611 70.4606 53.2306 68.9249 53.797C66.3481 54.7497 63.6932 55.3934 60.9081 55.0329C60.2574 54.9557 59.9971 55.1874 60.1012 55.8054C60.4656 57.994 60.1012 60.1569 59.9711 62.3455C59.919 63.1952 59.8149 63.4269 58.8518 63.2467C56.9517 62.8605 54.9736 62.7575 53.0735 62.4227C50.4967 61.9593 48.2061 60.8521 46.3581 59.0239C45.7594 58.4317 45.4211 58.2772 44.9526 59.1784C44.2758 60.4916 43.2086 61.5215 42.1935 62.603C41.2825 63.5814 40.3195 64.5083 39.6948 65.7185C39.4345 66.2077 39.1482 66.5682 38.7057 65.8215C37.196 63.2982 34.6452 61.573 33.2657 58.9467C32.9794 58.4317 32.641 58.4832 32.2246 58.8695C29.2833 61.8048 25.5352 62.6802 21.5528 62.9119C20.7459 62.9634 19.913 63.1179 19.1061 63.2982C18.5335 63.4269 18.2993 63.2467 18.2732 62.6802C18.1951 60.5431 17.7006 58.406 18.1431 56.2689C18.3253 55.3677 18.039 55.033 17.0759 55.1102C14.473 55.3162 11.9743 54.7755 9.57967 53.8485C7.96589 53.2306 6.35213 52.5869 4.60821 52.3809C3.82735 52.3036 3.82735 51.8916 4.08764 51.2994C5.75347 47.4887 7.7837 43.9869 11.8181 42.133C12.3908 41.8755 12.7291 41.5151 11.9222 41.1031C7.99192 39.0947 5.38906 35.7989 3.07251 32.2456C2.2396 30.984 1.43271 29.7223 0.39157 28.6151C-0.285174 27.8942 -0.0509133 27.508 0.834059 27.302C1.22449 27.2247 1.58889 27.1217 1.95329 26.993C4.13969 26.2205 4.26983 25.7828 2.86429 24.0062C2.52592 23.5685 2.10946 22.9505 2.9684 22.8732C5.77949 22.693 8.27823 21.2511 11.0893 21.1739C11.8442 21.1481 12.573 21.1739 13.6922 21.1739ZM50.835 46.7935C50.783 46.8707 50.7309 46.948 50.6528 47.051C50.4446 46.948 50.2103 46.845 50.0021 46.7162C48.9349 46.124 48.0239 45.3516 47.0609 44.6049C46.4362 44.1414 44.5101 44.2186 44.2758 44.7851C43.8333 45.7635 44.8224 46.0983 45.369 46.536C47.2691 48.0551 49.5076 48.6216 51.8762 48.8276C52.657 48.8791 53.4639 48.8533 54.1407 49.4198C48.5966 49.8575 44.0676 48.1324 40.84 43.4204C40.788 44.2186 40.8921 44.7851 40.9962 45.3773C41.2565 47.2312 40.84 48.9563 39.7989 50.527C39.3304 51.2222 38.966 51.1707 38.6016 50.5012C37.7687 49.0593 37.3001 47.5144 37.4303 45.815C37.4823 45.1198 37.5865 44.4246 37.6645 43.7294C34.2808 48.1324 29.7518 49.7803 24.3639 49.4456C24.7023 48.9563 25.2749 49.0336 25.7434 48.9563C26.6284 48.8018 27.5654 48.7761 28.4504 48.5959C30.6628 48.1839 32.641 47.2312 34.2027 45.5833C34.5411 45.2486 34.9576 44.7079 34.1507 44.5534C32.9794 44.3216 31.8081 43.9869 30.7409 45.0426C29.934 45.8665 28.971 46.536 27.7997 46.845C28.5806 45.8665 29.6477 45.1971 30.3505 44.0384C29.0751 43.7294 27.8257 43.6779 26.7325 43.163C26.1078 42.854 25.6914 43.06 25.2229 43.4719C23.2447 45.3258 22.1775 47.5917 22.0474 50.2952C22.0213 51.1449 22.2296 51.5312 23.1666 51.6084C25.8476 51.7887 28.4244 51.5569 30.9231 50.424C32.615 49.6515 34.2027 48.6989 35.8165 47.3342C35.2439 50.8617 36.4933 53.591 38.5755 56.0371C38.9139 56.4491 39.2263 56.9126 39.7729 56.2174C41.4647 54.106 42.8182 51.8401 42.7922 49.0078C42.7922 48.6216 42.61 48.1839 42.9483 47.7462C43.3128 48.0036 43.6771 48.2354 44.0155 48.4671C47.3732 50.8875 51.1213 51.9689 55.2599 51.6342C55.9627 51.5827 56.3791 51.4282 56.3531 50.6042C56.275 47.6947 55.2078 45.2743 52.9954 43.3432C52.7611 43.1372 52.4748 42.9055 52.1885 43.0342C50.8871 43.6007 49.5076 43.8582 47.8678 44.1929C49.013 45.1713 49.924 45.9695 50.835 46.7935ZM10.4386 31.087C10.7249 31.2415 11.0373 31.3702 11.3236 31.5247C12.4168 32.0397 13.536 32.2457 14.7073 31.7564C15.5663 31.396 15.8265 30.984 15.1758 30.1343C13.6662 28.1002 12.6771 25.8086 12.3127 23.311C12.1825 22.3583 11.74 22.1008 10.8551 22.2038C9.2413 22.4098 7.73164 22.899 6.19595 23.3625C4.37394 23.9289 4.34792 23.9289 5.10275 25.6798C5.46715 26.5295 5.62332 27.096 4.32189 27.1475C3.67118 27.1732 3.04649 27.6367 2.39578 27.8684C1.74506 28.1002 1.74506 28.4091 2.10946 28.9241C3.09855 30.366 4.03557 31.8594 5.05069 33.3271C7.57547 37.0606 10.9592 39.7899 15.1758 41.4893C17.7787 42.5192 20.4596 43.163 23.2967 42.6737C23.5831 42.6222 23.9995 42.648 24.0516 42.3133C24.1297 41.8498 23.6612 41.7983 23.3488 41.7211C22.0474 41.3863 20.7459 41.1031 19.4445 40.7426C13.51 39.0947 9.03307 35.6187 6.19595 30.1858C5.85758 29.5421 5.44112 28.8726 6.01375 27.7912C9.03307 34.3313 14.0306 38.1678 20.9021 40.0732C17.8307 36.3396 13.9785 33.9193 10.4386 31.087ZM42.3757 42.442C43.0264 42.8025 43.7292 42.8282 44.4059 42.8797C49.3774 43.2659 53.7502 41.7983 57.3942 38.4253C59.2683 36.7001 60.856 34.6917 63.0685 33.3528C63.7192 32.9409 63.3287 32.7349 62.8863 32.5031C60.3615 31.2157 57.7847 30.1085 54.9475 29.7996C52.3967 29.5163 49.924 29.7996 47.5294 30.7265C47.1129 30.881 46.4882 31.0097 46.6704 31.6534C47.0088 32.8894 47.0348 34.151 47.0609 35.4642C52.8652 32.8636 53.2817 32.7349 54.5311 33.2241C50.1322 34.048 46.6444 35.9792 45.2389 40.5366C50.0281 40.3049 53.4639 37.2408 57.2641 34.3313C57.16 35.3097 56.6654 35.5929 56.3271 35.9534C52.9433 39.4037 48.8568 41.4893 43.9374 41.7983C43.3388 41.7983 42.7141 41.7725 42.3757 42.442ZM31.3656 35.5672C31.4958 34.3055 31.2615 33.2498 31.6519 32.2971C32.0163 31.396 31.73 31.0355 30.8711 30.7007C25.327 28.5379 20.2514 30.0055 15.306 32.6576C14.8374 32.9151 14.9155 33.1468 15.332 33.3786C17.4924 34.7175 19.1322 36.5971 20.9802 38.2965C23.7913 40.8971 27.123 42.4677 30.9492 42.8282C32.7712 43.0085 34.6192 43.06 36.5193 42.5707C35.9987 41.8755 35.4001 41.8498 34.8014 41.7725C31.5218 41.4378 28.4244 40.6139 25.6133 38.8115C23.9214 37.73 22.4899 36.3654 21.2665 34.6917C24.9886 37.1893 28.4244 40.2019 33.2136 40.3564C31.73 35.9019 28.3203 33.9193 23.9995 33.0438C26.7065 32.9924 29.023 34.0223 31.3656 35.5672ZM41.2825 39.7127C41.6729 39.4294 41.8031 39.3779 41.8812 39.3007C42.0894 38.966 42.2976 38.6312 42.4538 38.2965C43.7552 35.3612 43.4429 32.5546 41.8291 29.7996C41.4387 29.1558 40.788 28.6151 40.814 27.508C44.6923 31.8079 45.4471 36.1594 42.0894 40.9743C43.3388 40.3821 44.1717 39.5582 44.7964 38.5025C46.8787 34.8977 46.254 31.4732 43.9374 28.2547C42.6881 26.5038 41.1784 24.9589 39.8249 23.2852C39.3564 22.693 39.0441 22.8218 38.6016 23.311C37.4823 24.5726 36.259 25.7313 35.2439 27.0445C33.4479 29.3361 32.3026 31.8594 32.5369 34.872C32.7712 37.6271 34.3589 40.1504 36.4152 40.8713C33.4739 34.975 33.9164 30.6493 38.055 27.3277C37.0399 29.4906 35.6864 31.2157 35.374 33.3786C35.0357 35.6187 35.5042 37.6528 36.8576 39.5324C35.8946 36.1594 37.8467 33.6361 39.2523 30.778C40.6318 33.6618 42.662 36.1594 41.2825 39.7127ZM43.9895 7.65597C45.4471 9.09788 45.9416 10.9518 46.306 12.8314C46.3841 13.1919 46.0718 13.8871 46.7485 13.8098C47.2431 13.7583 47.0869 13.0889 47.0609 12.7026C46.9307 11.1062 46.4362 9.63859 45.6553 8.19668C44.2238 5.51886 41.5949 3.9997 39.6688 1.83684C39.2523 1.34762 38.9139 1.68235 38.6016 1.99133C37.6385 2.91827 36.6234 3.79372 35.6864 4.74641C33.6041 6.85777 31.678 9.07213 31.4697 12.2134C31.4437 12.7799 30.8971 13.7326 31.756 13.8613C32.4068 13.9386 32.2246 12.9086 32.3287 12.3679C32.6931 10.1793 33.5 8.22244 35.1658 6.70328C35.0096 7.1925 34.7493 7.63022 34.5151 8.06794C33.3438 10.2051 32.8232 12.4709 33.1095 14.8913C33.1616 15.3547 33.1356 15.9469 33.6561 16.1014C34.1246 16.2302 34.3849 15.6895 34.6452 15.3805C36.5453 13.1146 38.6797 11.029 39.3043 7.86196C39.9811 10.5913 41.3606 12.8314 43.3388 14.711C43.8333 15.1745 44.2237 16.1529 44.8484 15.9212C45.6293 15.638 45.395 14.608 45.4471 13.8356C45.5252 11.647 44.8745 9.61285 43.9895 7.65597ZM59.5025 46.1498C58.9299 46.536 58.5395 46.4587 58.1491 46.4845C57.7066 46.536 57.0298 46.227 56.8737 46.7935C56.6915 47.4887 57.4463 47.6432 57.9408 47.8749C59.7628 48.6216 61.6109 48.2611 63.4589 47.9521C64.6562 47.7462 65.8535 47.4114 67.1029 47.7204C64.3439 48.3641 61.715 49.6 58.7998 49.2396C58.4094 49.1881 57.8888 48.9048 57.6545 49.4713C57.4463 49.9605 57.7066 50.3982 58.097 50.733C59.2683 51.7629 60.6738 52.0719 62.1835 52.1749C64.1617 52.3036 66.0618 51.8144 67.9618 51.3509C69.029 51.0934 70.0702 50.7587 71.5798 51.0677C67.4933 52.2264 63.8754 53.7713 59.7368 52.7928C60.1272 54.0803 61.0643 53.9 61.8191 53.9773C65.6193 54.3377 68.8989 52.5096 72.3607 51.5312C73.0374 51.3252 72.8292 50.836 72.647 50.3725C71.1894 46.7935 68.7167 44.1414 65.1768 42.5192C64.6562 42.2875 64.2137 42.3133 63.6932 42.545C61.8972 43.3174 60.0231 43.8582 58.0449 44.0126C57.2901 44.0641 56.5353 44.1671 55.6243 44.2444C56.6394 45.5576 58.0189 45.7378 59.5025 46.1498ZM7.26312 50.836C7.91384 50.9132 8.56455 50.9132 9.18924 51.042C10.8551 51.3509 12.4949 51.7887 14.1607 52.0461C16.217 52.3551 18.2472 52.1491 20.0171 50.939C20.4857 50.63 20.9802 50.1923 20.772 49.5743C20.5637 48.9821 19.9391 49.2653 19.5226 49.2911C16.5814 49.4713 13.9004 48.3384 11.1414 47.6689C12.0264 47.4629 12.8853 47.5659 13.7442 47.6947C15.4101 47.9779 17.0499 48.3641 18.7678 48.2869C19.5226 48.2611 20.2254 48.1066 20.9021 47.7462C21.2665 47.5402 21.5528 47.2054 21.4487 46.8192C21.3446 46.3815 20.8761 46.5617 20.5637 46.5102C20.0952 46.433 19.5747 46.639 19.0541 46.1498C19.6527 45.9695 20.1213 45.8665 20.5637 45.6863C21.0843 45.4546 21.9693 45.4288 21.9172 44.7079C21.8652 43.9612 21.0062 44.0126 20.4336 43.9612C18.5075 43.7809 16.6855 43.2917 14.9155 42.5707C14.1347 42.236 13.562 42.3648 12.8332 42.7252C9.44952 44.3989 7.18504 47.051 5.72744 50.4497C5.51921 50.9647 5.51921 51.2479 6.09183 51.4024C8.82484 52.1749 11.4017 53.5653 14.2648 53.9C15.4621 54.0288 16.6855 54.0803 17.9088 53.9C18.2732 53.8485 18.5856 53.6683 18.5856 53.2306C18.5595 52.8701 18.2472 52.8958 17.9869 52.9473C14.1086 53.5653 10.7249 52.0461 7.26312 50.836ZM41.6209 17.8266C43.9635 20.0152 44.8484 22.7188 44.5882 25.8343C44.5621 26.272 44.5101 26.684 44.5101 27.1217C44.5101 27.3277 44.6662 27.5595 44.9265 27.5337C45.0567 27.5337 45.2649 27.405 45.3169 27.2762C45.4731 27.0187 45.5512 26.7355 45.6553 26.4523C46.8006 22.6415 45.6293 19.3457 43.2086 16.3847C42.0373 14.9428 40.7359 13.6296 39.7729 12.0332C39.3824 11.4152 39.1221 11.3895 38.6536 12.0074C37.2741 13.8098 35.7124 15.5092 34.411 17.3889C32.589 19.9894 31.8602 22.899 32.6931 26.066C32.8492 26.6068 32.9013 27.5852 33.5 27.4822C34.3069 27.3535 33.9164 26.4265 33.8644 25.8343C33.5 22.6415 34.5932 19.9894 36.8837 17.8008C36.7015 18.393 36.4152 18.9595 36.1028 19.5002C35.1918 21.0451 34.6712 22.7188 34.6973 24.5211C34.6973 24.8559 34.5411 25.2936 34.9055 25.4481C35.2959 25.6283 35.4781 25.1649 35.7124 24.9331C37.3001 23.3367 38.9399 21.7661 39.2523 19.2942C39.5907 21.1224 40.4496 22.59 41.699 23.8517C42.2976 24.4696 42.8703 25.7828 43.5991 25.4223C44.2498 25.0876 43.8594 23.6972 43.7292 22.7703C43.3908 20.9421 42.584 19.3715 41.6209 17.8266ZM19.7569 19.5517C19.7569 18.2643 19.7569 16.9769 19.7569 15.6895C19.7569 15.226 19.6527 14.8913 20.4076 15.02C24.1036 15.638 27.5915 16.8224 30.8711 18.6763C32.2506 19.4487 32.1725 19.4487 32.9013 18.0068C33.3178 17.1571 32.8232 16.6936 32.3807 16.2044C28.034 11.3895 22.5419 10.2051 16.3211 11.2092C15.7485 11.3122 15.6443 11.6212 15.7745 12.1362C16.1389 13.6038 16.1389 15.0972 16.1909 16.5907C16.269 18.7535 16.6334 20.8391 17.5705 22.8218C18.0129 23.7744 18.5595 24.6241 19.3664 25.3193C19.5226 25.4481 19.7308 25.6283 19.9391 25.4996C20.1733 25.3708 20.0952 25.1391 20.0432 24.9331C19.5486 23.1307 19.7829 21.3283 19.7569 19.5517ZM58.123 25.7828C59.3724 25.1134 60.0231 24.3409 60.5177 23.414C61.4287 21.7146 61.9492 19.9379 62.0534 18.0068C62.1314 16.5392 62.1835 15.0972 62.3397 13.6553C62.6 11.2865 62.652 11.2607 60.2053 10.9775C54.9996 10.3595 50.5487 11.9044 46.7485 15.432C45.1868 16.8739 45.1608 17.4661 46.1238 19.1655C46.3841 19.629 46.6704 19.7834 46.9828 19.32C47.6335 18.3158 48.7527 18.1356 49.6898 17.6463C52.3187 16.2559 55.1818 15.5865 58.071 15.02C58.5135 14.9428 58.7477 14.9685 58.6696 15.4835C58.2011 18.7793 59.1381 22.1523 58.123 25.7828ZM58.071 39.7127C59.3724 39.7642 60.4916 39.1462 61.5848 38.657C67.9618 35.8247 71.3976 30.4948 73.8703 24.3409C74.0265 23.9547 73.8964 23.7744 73.506 23.6972C71.4237 23.311 69.4455 22.4613 67.3372 22.2038C66.5563 22.1008 66.1659 22.3068 66.0357 23.1565C65.6713 25.6026 64.6562 27.8427 63.3548 29.9283C62.6 31.1642 62.678 31.3702 64.1356 31.7822C65.5152 32.1684 66.6864 31.6277 67.9618 31.1642C64.5521 33.9193 60.6999 36.0564 58.071 39.7127ZM25.5873 52.8443C24.8585 52.8443 24.1297 52.8701 23.4009 52.8443C22.62 52.7928 21.6309 52.9731 21.1364 52.5611C20.3295 51.9174 20.2774 52.4066 20.0432 52.9216C18.7938 55.5994 18.8719 58.406 19.3144 61.2383C19.3925 61.8048 19.7568 62.0108 20.3295 61.9593C23.7653 61.7275 27.149 61.3155 30.0902 59.3072C32.2506 57.8395 32.3547 57.6593 31.6259 55.2389C31.6259 55.1874 31.5999 55.1617 31.5999 55.1102C31.4697 53.7713 30.9752 54.1575 30.3245 54.8012C29.5957 55.5222 28.8408 56.2946 27.8518 56.7066C28.6586 55.6767 29.6738 54.8785 30.3245 53.7455C30.5067 53.4108 30.793 53.1018 30.4806 52.6898C30.1683 52.2779 29.7779 52.3036 29.3094 52.4324C28.2682 52.7413 27.2791 53.1533 26.3681 53.7455C24.7804 54.8012 23.6351 56.1916 22.8543 57.9168C23.0365 55.8569 24.2338 54.3892 25.5873 52.8443ZM50.5747 56.6808C49.7939 56.4749 49.2733 55.9084 48.7267 55.3934C47.2431 54.003 47.3992 54.0288 46.6184 55.9084C46.0718 57.1958 46.5403 57.8395 47.4513 58.5862C49.95 60.6461 52.9173 61.47 56.0668 61.7533C59.2683 62.0365 59.3204 62.0108 59.3204 58.7407C59.3204 56.3976 59.3984 54.003 57.7847 52.0719C56.301 53.2821 54.479 52.7413 52.631 52.9731C54.1407 54.4922 55.39 55.8826 55.4941 57.891C54.6873 56.3461 53.7763 54.9042 52.2926 53.9258C51.3556 53.3078 50.3665 52.7413 49.2212 52.5868C48.8048 52.5354 48.3102 52.5354 48.05 52.9473C47.8157 53.2821 48.128 53.591 48.2842 53.9C48.8568 54.9557 49.8199 55.7024 50.5747 56.6808ZM21.6569 16.4362C20.9802 16.3074 20.824 16.6421 20.824 17.2086C20.824 18.805 20.7199 20.3757 20.798 21.9721C20.8761 24.1607 21.5528 26.169 22.8022 27.9972C23.1406 28.4864 23.4789 28.7181 24.0776 28.6151C24.8064 28.5121 24.8064 27.9714 24.8585 27.4822C24.9886 26.066 25.1448 24.6756 25.2229 23.2595C25.2749 22.4613 25.5352 22.3068 26.264 22.6415C27.5915 23.2595 28.945 23.8259 30.2985 24.4181C30.5848 24.5469 30.8711 24.9331 31.1574 24.4181C31.6519 23.5427 31.2615 20.8649 30.4546 20.1954C27.9559 18.0068 24.9366 16.9511 21.6569 16.4362ZM57.5504 19.6032C57.5504 19.1397 57.4983 18.3415 57.5764 17.5948C57.6805 16.6679 57.3942 16.3589 56.4312 16.5392C54.1146 17.0026 51.9022 17.6206 49.8459 18.8308C47.9458 19.9637 46.4102 21.2254 47.1129 23.8259C47.3212 24.6241 47.3992 24.8816 48.2061 24.4697C49.5076 23.8002 50.8871 23.2337 52.2145 22.6415C52.7351 22.4098 53.0735 22.384 53.1255 23.1565C53.2296 24.4696 53.4119 25.7828 53.5941 27.096C53.6721 27.6624 53.3077 28.4091 54.2968 28.6409C55.3119 28.8984 55.5722 28.2032 55.9627 27.5852C57.3942 25.2164 57.7847 22.6158 57.5504 19.6032ZM54.1667 42.2875C55.1037 42.8025 56.0147 42.8282 56.8997 42.8282C61.0643 42.8025 64.6042 41.1031 67.9618 38.863C71.2675 36.6744 73.2196 33.3528 75.354 30.1858C76.7595 28.1002 76.7595 28.1002 74.3389 27.199C73.7142 26.9672 73.4279 27.0445 73.1676 27.7139C70.3044 35.4127 64.474 39.5839 56.5873 41.3091C55.8065 41.4893 54.9736 41.5666 54.1667 42.2875ZM39.3043 58.9467C38.3413 57.6335 37.4563 56.4491 36.6234 55.2132C36.1549 54.5437 35.8425 54.312 35.4001 55.2132C35.1398 55.7539 34.8274 56.2946 34.411 56.7066C33.7863 57.3503 33.8644 57.9168 34.2808 58.6377C35.4781 60.6461 37.3522 62.088 38.8098 63.9161C39.1221 64.3024 39.3824 64.1736 39.6427 63.8904C40.84 62.5515 42.0894 61.2383 43.2347 59.8479C44.7443 58.0198 44.7183 57.994 43.521 56.0114C43.3388 55.7282 43.1826 55.4192 43.0264 55.1102C42.6881 54.518 42.3757 54.518 42.0113 55.0844C41.1784 56.3719 40.0592 57.479 39.3043 58.9467ZM14.2388 22.281C13.2497 22.0236 13.0935 22.5128 13.2757 23.3367C13.7963 25.4223 14.5511 27.405 15.7745 29.2331C16.5553 30.366 17.3362 30.7522 18.6116 29.9798C19.3404 29.5421 20.2254 29.3876 21.0323 29.1044C21.2925 29.0014 21.735 29.0014 21.5528 28.5379C21.2145 27.7397 21.1364 26.7355 19.9651 26.581C18.3773 26.375 17.3883 25.3451 16.8937 23.9547C16.4252 22.59 15.5142 22.2295 14.2388 22.281ZM64.0575 22.2553C63.4849 22.4098 62.4698 22.1008 62.1575 22.7703C61.2465 24.7786 60.0752 26.3235 57.7847 26.89C57.16 27.0445 56.8737 27.9972 56.8476 28.6151C56.7956 29.2588 57.7066 29.1044 58.1751 29.2846C59.008 29.6193 59.893 29.8768 60.6999 30.263C61.2204 30.4948 61.5588 30.5205 61.9232 30.057C63.4849 27.9972 64.5 25.7313 64.9425 23.208C65.0466 22.59 64.9686 22.1523 64.0575 22.2553ZM50.3925 27.2247C50.1062 28.4091 50.3665 28.9499 51.6159 28.7439C52.1364 28.6666 52.3707 28.4864 52.4488 27.9714C52.5789 26.8385 52.4228 25.7571 52.2406 24.6499C52.1885 24.3667 52.1104 24.1092 51.6679 24.1349C49.7158 24.2637 46.5403 26.787 45.9156 28.7181C45.7855 29.1044 45.8635 29.3876 46.0978 29.6708C46.3321 29.954 46.5924 29.9283 46.9047 29.7996C48.2842 29.2846 49.7678 28.9499 50.3925 27.2247ZM28.3463 27.6109C28.971 28.6924 29.9861 29.2588 31.0793 29.6708C31.4958 29.8253 31.9122 30.263 32.3547 29.7223C32.6931 29.2846 32.5629 28.8469 32.3287 28.4091C31.1834 26.2205 29.3614 24.9331 27.0188 24.2122C26.5503 24.0834 26.29 24.1349 26.1859 24.6499C26.0037 25.7571 25.8476 26.8642 26.0298 27.9714C26.212 29.1816 27.2531 28.6409 27.9298 28.6666C28.8408 28.6924 27.9298 27.9972 28.3463 27.6109ZM40.8921 37.7815C40.9181 36.4941 40.4496 35.3612 39.8249 34.254C39.4865 33.6361 39.1482 33.5846 38.6797 34.2025C37.2741 36.0307 37.2481 38.9402 38.6276 40.6911C39.0701 41.2318 39.4085 41.2833 39.8509 40.7426C40.5277 39.8672 40.8661 38.8887 40.8921 37.7815ZM45.8636 53.5653C45.7334 52.4324 45.7855 51.2222 44.8484 50.3725C44.5882 50.1408 44.0936 49.6 43.8594 50.3725C43.2607 52.2521 43.0264 54.106 44.5882 55.7282C44.7704 55.9084 44.8484 56.2174 45.1608 56.1659C45.4731 56.1401 45.5252 55.8311 45.5772 55.5994C45.7074 54.93 45.9156 54.2605 45.8636 53.5653ZM32.589 53.7198C32.6931 54.2605 32.7712 54.8785 32.9013 55.4964C32.9534 55.7797 33.0575 56.1401 33.4219 56.1659C33.7082 56.1916 33.7863 55.8312 33.9425 55.6509C35.348 54.0545 35.348 52.3294 34.6192 50.4497C34.3589 49.7803 34.0726 49.9348 33.7082 50.2952C32.7451 51.2222 32.7972 52.4581 32.589 53.7198ZM39.1742 43.6522C38.2892 45.6091 38.1591 47.5402 39.2523 49.4198C40.2934 47.4629 40.1373 45.5576 39.1742 43.6522Z" fill="#59537C"/>
</svg>
