<svg width="72" height="72" viewBox="0 0 72 72" fill="none" xmlns="http://www.w3.org/2000/svg">
<g clip-path="url(#clip0_62_586)">
<path d="M71.3794 0.618295C71.3759 0.614777 71.3719 0.611963 71.3684 0.608446C70.9045 0.151024 70.2557 -0.0677678 69.6088 0.0184825C69.3174 0.0571755 62.3649 1.00621 52.9332 4.37785C44.2173 7.49369 31.674 13.3615 21.4137 23.6217C18.8931 26.1423 16.6304 28.7961 14.6001 31.5145C14.9558 31.61 15.3046 31.7359 15.6444 31.8945C17.971 32.9806 19.3992 35.3649 19.2832 37.9689C19.2058 39.7066 18.9325 42.4023 19.9492 43.9487C21.4578 46.2434 24.4605 47.3212 27.095 46.608C32.8012 45.0632 33.7128 37.009 28.3824 34.3251C26.0743 33.1631 24.6952 30.7682 24.8689 28.2239C25.0873 25.0245 27.6644 22.4884 30.8636 22.3249C35.6995 22.0786 40.4843 22.9743 44.9024 24.9654C50.7062 27.5676 55.5639 31.9695 58.7275 37.4971C62.9087 30.8554 65.7568 24.2756 67.6197 19.0643C70.9913 9.63265 71.9402 2.68014 71.9791 2.38875C72.0657 1.73744 71.8441 1.08289 71.3794 0.618295Z" fill="black"/>
<path d="M55.0937 39.6435C52.3726 34.8654 48.1799 31.0601 43.1711 28.815C39.3836 27.1116 35.2388 26.3278 31.0791 26.5405C30.0237 26.5945 29.1546 27.4252 29.0804 28.5115C29.022 29.3676 29.5142 30.1691 30.2809 30.555C32.1815 31.5119 33.745 32.9972 34.804 34.8528C36.221 37.3367 36.6129 40.2822 35.8451 43.0735C35.0828 45.8632 33.2798 48.189 30.7681 49.6227C27.987 51.2206 24.6301 51.4902 21.6269 50.3663C19.2476 49.4859 17.2709 47.8166 15.9982 45.5869C15.2871 44.3411 14.914 41.209 15.0665 37.781C15.1051 36.9156 14.6443 36.0857 13.8591 35.7192C12.8804 35.2623 11.7406 35.6124 11.1782 36.4991C5.28082 45.7995 1.89623 55.2832 0.0924329 61.6186C-0.0571333 62.1437 -0.0247718 62.7117 0.223426 63.198C0.641733 64.0174 1.51479 64.4553 2.38841 64.3381L8.47503 63.5223L7.65924 69.6089C7.56483 70.314 7.83188 71.0192 8.36965 71.4849C8.75813 71.8213 9.25002 71.9999 9.7512 71.9999C9.94382 71.9999 10.1378 71.9734 10.3279 71.9196C20.9779 68.8936 36.224 62.7357 48.376 50.5837C51.1136 47.846 53.7065 44.778 56.0634 41.4854C55.6648 40.6905 55.372 40.1308 55.0937 39.6435Z" fill="black"/>
</g>
<defs>
<clipPath id="clip0_62_586">
<rect width="72" height="72" fill="white"/>
</clipPath>
</defs>
</svg>
