<svg width="72" height="72" viewBox="0 0 72 72" fill="none" xmlns="http://www.w3.org/2000/svg">
<g clip-path="url(#clip0_62_590)">
<path d="M32.3629 40.8675L27.043 26.9156L24.4609 15.9604H0V69.8554C0 71.0203 0.944437 71.9648 2.10938 71.9648H25.0221C26.187 71.9648 27.1315 71.0203 27.1315 69.8554V61.251C27.1315 60.086 26.187 59.1416 25.0221 59.1416H17.1508C15.6537 59.1416 14.4354 57.9235 14.4354 56.4263C14.4354 55.2204 15.2453 54.1467 16.4049 53.8154L25.6015 51.1879C26.507 50.9291 27.1313 50.1014 27.1313 49.1596V44.9397L31.0636 43.6184C31.6079 43.4356 32.0541 43.0388 32.2992 42.5197C32.5444 42.0007 32.5675 41.404 32.3629 40.8675ZM9.0817 28.1604C9.90534 27.3367 11.241 27.3367 12.0648 28.1604C12.4657 28.5613 12.9988 28.7821 13.5657 28.7821C14.1327 28.7821 14.6656 28.5613 15.0667 28.1604C15.8905 27.3367 17.2261 27.3367 18.0498 28.1604C18.8736 28.9842 18.8734 30.3197 18.0498 31.1434C16.8519 32.3412 15.2595 33.0008 13.5657 33.0008C11.8718 33.0008 10.2794 32.3412 9.0817 31.1434C8.25792 30.3198 8.25792 28.9842 9.0817 28.1604Z" fill="black"/>
<path d="M23.4664 11.7418L22.4795 7.55494C21.4359 3.1275 17.5302 0.0351562 12.9812 0.0351562H2.10938C0.944437 0.0351562 0 0.979594 0 2.14453V11.7418H23.4664Z" fill="black"/>
<path d="M36.0078 48.5239L33.2253 50.4894C32.2737 51.1616 32.0473 52.4778 32.7194 53.4293C33.1304 54.0112 33.7822 54.3219 34.4441 54.3219C34.8648 54.3219 35.2897 54.1963 35.6594 53.9351L38.4418 51.9696C39.3934 51.2974 39.6198 49.9812 38.9478 49.0297C38.2755 48.0782 36.9591 47.8517 36.0078 48.5239Z" fill="black"/>
<path d="M71.9677 35.4632C72.0655 34.9093 71.9379 34.3392 71.6134 33.8798L64.2889 23.5096C63.6206 22.5635 62.3147 22.3332 61.3633 22.9937L55.7092 26.9174L65.4675 40.7334L71.0929 36.8295C71.5553 36.509 71.8701 36.017 71.9677 35.4632Z" fill="black"/>
<path d="M45.4797 36.6514L40.2884 40.3186C39.8314 40.6413 39.5214 41.1325 39.4265 41.6839C39.3317 42.2353 39.4598 42.8017 39.7827 43.2588L44.6672 50.1715C45.0781 50.7531 45.7299 51.0637 46.3917 51.0637C46.8124 51.0637 47.2372 50.9382 47.6069 50.677L52.7974 47.0104L45.4797 36.6514Z" fill="black"/>
<path d="M52.2435 29.3228L49.0668 31.5272C49.062 31.5306 49.0572 31.5339 49.0523 31.5373C49.0454 31.5422 49.0384 31.5472 49.0315 31.5521C48.2966 32.0758 48.1395 33.1053 48.6601 33.8423L56.5081 44.9518C57.0283 45.6881 58.0502 45.8854 58.7886 45.3685C58.7933 45.3653 58.7978 45.362 58.8024 45.3589L62.0016 43.1389L52.2435 29.3228Z" fill="black"/>
</g>
<defs>
<clipPath id="clip0_62_590">
<rect width="72" height="72" fill="white"/>
</clipPath>
</defs>
</svg>
