<svg width="72" height="72" viewBox="0 0 72 72" fill="none" xmlns="http://www.w3.org/2000/svg">
<path d="M35.1898 9C35.3861 9.34006 35.668 9.62282 36.0075 9.82018C36.3469 10.0175 36.7321 10.1226 37.1248 10.125V16.3125H36.5623C35.8164 16.3125 35.101 16.6088 34.5736 17.1363C34.0461 17.6637 33.7498 18.3791 33.7498 19.125V23.625C33.7498 24.0616 33.8514 24.4923 34.0467 24.8828C34.242 25.2733 34.5255 25.613 34.8748 25.875H33.9748C31.4646 25.8778 29.0407 26.7917 27.1536 28.4471C25.2666 30.1024 24.0446 32.3865 23.7148 34.875H55.0235C54.6938 32.3865 53.4718 30.1024 51.5847 28.4471C49.6976 26.7917 47.2738 25.8778 44.7635 25.875H43.8748C44.2241 25.613 44.5076 25.2733 44.7029 24.8828C44.8981 24.4923 44.9998 24.0616 44.9998 23.625V19.125C44.9998 18.3791 44.7035 17.6637 44.176 17.1363C43.6486 16.6088 42.9332 16.3125 42.1873 16.3125H41.6248V10.125C42.2215 10.125 42.7938 9.88795 43.2158 9.46599C43.6377 9.04403 43.8748 8.47174 43.8748 7.875V5.625C43.8748 5.02826 43.6377 4.45597 43.2158 4.03401C42.7938 3.61205 42.2215 3.375 41.6248 3.375H37.1248C36.7321 3.37737 36.3469 3.48246 36.0075 3.67982C35.668 3.87718 35.3861 4.15994 35.1898 4.5H23.6248L18.3373 6.26625C18.0576 6.3434 17.7965 6.47669 17.5699 6.65801C17.3434 6.83933 17.1561 7.06488 17.0196 7.32091C16.883 7.57694 16.8 7.8581 16.7756 8.14725C16.7512 8.4364 16.786 8.72748 16.8778 9.00276C16.9695 9.27805 17.1164 9.53176 17.3094 9.74845C17.5024 9.96515 17.7374 10.1403 18.0003 10.2632C18.2632 10.3861 18.5483 10.4541 18.8383 10.4633C19.1284 10.4724 19.4172 10.4224 19.6873 10.3162L23.6248 9H35.1898Z" fill="black"/>
<path d="M17.235 18.72C16.927 19.3265 16.8094 20.012 16.8977 20.6866C16.986 21.3611 17.2762 21.9932 17.73 22.5C18.0466 22.8554 18.4349 23.1398 18.8692 23.3345C19.3035 23.5293 19.7741 23.63 20.25 23.63C20.726 23.63 21.1966 23.5293 21.6309 23.3345C22.0652 23.1398 22.4534 22.8554 22.77 22.5C23.2215 21.9942 23.5103 21.3642 23.5985 20.6919C23.6868 20.0197 23.5706 19.3365 23.265 18.7312L20.25 12.375L17.235 18.72Z" fill="black"/>
<path d="M33.9861 68.625H44.7636C47.2738 68.6222 49.6977 67.7083 51.5847 66.0529C53.4718 64.3976 54.6938 62.1135 55.0236 59.625H23.7261C24.0559 62.1135 25.2778 64.3976 27.1649 66.0529C29.052 67.7083 31.4759 68.6222 33.9861 68.625Z" fill="black"/>
<path d="M23.625 37.125H55.125V57.375H23.625V37.125Z" fill="black"/>
</svg>
