<svg width="72" height="72" viewBox="0 0 72 72" fill="none" xmlns="http://www.w3.org/2000/svg">
<path d="M63.4126 34.3431C63.3836 34.168 63.3051 34.0049 63.1865 33.8729C63.0679 33.741 62.9141 33.6456 62.7431 33.5982C59.1181 33.2663 54.3506 25.2096 49.6643 12.7307C49.0728 11.0598 48.1777 9.5125 47.0241 8.16676C42.5096 2.73478 36.3287 4.25777 32.6252 7.97837C29.1646 4.95132 25.9775 3.89523 23.1486 4.82874C17.274 6.76177 15.407 16.6439 15.3316 17.0871C13.6916 27.1777 10.8562 27.2331 10.0699 27.2805C9.8788 27.3039 9.69957 27.3858 9.5568 27.5151C9.41402 27.6443 9.31467 27.8145 9.27235 28.0024C9.23003 28.1902 9.2468 28.3866 9.32037 28.5646C9.39395 28.7425 9.52072 28.8934 9.68335 28.9966C10.8086 29.7253 12.0635 30.2311 13.3797 30.4864C14.2195 31.6846 14.9878 32.9315 15.6805 34.2205C16.8644 33.1012 18.1421 32.0854 19.4994 31.1842C18.4693 30.8611 17.4068 30.6524 16.3311 30.5618C17.5371 30.3826 18.6893 29.9417 19.7068 29.27C21.7454 27.8951 23.3252 25.9409 24.2425 23.6594C25.3268 21.2078 26.581 19.6708 27.2127 19.9065C28.883 20.6996 30.6936 21.1546 32.5404 21.2454C34.2168 21.086 35.845 20.5957 37.3306 19.8028C38.0632 19.4679 40.7245 20.5243 43.6578 27.1201C45.6839 30.2228 48.53 32.7033 51.8804 34.2865C53.0547 34.8317 54.289 35.2368 55.5579 35.4934C37.136 37.9518 36.0898 57.018 35.9162 58.0206C41.8083 56.4316 44.9547 52.9886 47.9108 48.1292C51.7295 41.3303 55.1525 37.7095 57.7173 35.7764C59.1736 35.8838 60.6376 35.8046 62.0737 35.5406C62.7482 35.4755 63.5614 35.2034 63.4126 34.3431Z" fill="black"/>
<path d="M44.9404 37.4642C41.0177 31.3916 35.2091 32.6739 32.6349 33.6547C32.8801 33.8716 33.0215 34.0224 33.0592 34.0602C33.229 34.241 33.3207 34.4814 33.3146 34.7293C33.3085 34.9773 33.2051 35.2129 33.0266 35.3851C32.8481 35.5574 32.609 35.6524 32.361 35.6497C32.113 35.6471 31.876 35.5468 31.7013 35.3708C31.0869 34.7758 30.4211 34.2363 29.7118 33.7584C26.2417 37.7565 19.6693 46.922 21.5741 57.5113C21.5979 57.6469 21.5919 57.786 21.5566 57.919C21.5213 58.052 21.4575 58.1757 21.3695 58.2815C21.2816 58.3874 21.1717 58.4729 21.0475 58.532C20.9232 58.5911 20.7876 58.6225 20.65 58.624C20.4279 58.625 20.2128 58.5468 20.0434 58.4033C19.874 58.2598 19.7614 58.0605 19.7259 57.8413C17.708 46.6956 24.3464 37.1247 28.0804 32.7777C27.1285 32.2341 26.0772 31.8872 24.9887 31.7576C23.9002 31.628 22.7967 31.7184 21.7438 32.0233C17.6456 34.4109 14.2626 37.8539 11.9473 41.9934C9.63209 46.133 8.46931 50.8177 8.58014 55.5594C8.5519 56.0498 8.01441 65.8282 19.028 67.1011C23.5179 68.2778 31.4562 67.3807 33.7285 58.9727C34.7121 56.0623 34.389 45.306 44.9404 37.4642Z" fill="black"/>
</svg>
