<svg width="72" height="72" viewBox="0 0 72 72" fill="none" xmlns="http://www.w3.org/2000/svg">
<g clip-path="url(#clip0_62_567)">
<path d="M58.9365 0.490551C58.2845 -0.163517 57.2237 -0.163517 56.5697 0.490551C55.9156 1.14462 55.9156 2.20329 56.5697 2.85735L60.0811 6.36877L56.9973 9.33933L62.6282 14.9744L65.7098 12.0059L62.8965 9.19049L69.2212 15.5152C69.8753 16.1693 70.934 16.1693 71.588 15.5152C72.2421 14.8633 72.2421 13.8025 71.588 13.1484L58.9365 0.490551Z" fill="black"/>
<path d="M67.5273 22.104L49.9765 4.54904C49.3224 3.89707 48.2638 3.89707 47.6097 4.54904C46.9556 5.2031 46.9556 6.26387 47.6097 6.91794L50.1421 9.45035L45.3016 14.293L49.314 18.3054C49.7102 18.7037 49.7102 19.3473 49.314 19.7414C48.9157 20.1418 48.2742 20.1418 47.878 19.7414L43.8635 15.729L40.1592 19.4354L44.1716 23.4478C44.5783 23.8252 44.5993 24.4583 44.222 24.865C43.8446 25.2717 43.2073 25.2926 42.8048 24.9153C42.7859 24.8985 42.7713 24.8838 42.7545 24.865L38.742 20.8525L35.0357 24.5505L39.0502 28.563C39.4548 28.9403 39.4758 29.5755 39.0984 29.9801C38.7211 30.3847 38.0859 30.4099 37.6813 30.0304C37.6645 30.0157 37.6477 29.9969 37.6331 29.9801L33.6206 25.9697L29.9142 29.6719L33.9267 33.6844C34.325 34.0806 34.325 34.7221 33.9288 35.1204C33.5368 35.5166 32.8932 35.5187 32.497 35.1225L28.4845 31.11L24.7739 34.8227L28.7843 38.8331C29.191 39.2104 29.214 39.8456 28.8367 40.2523C28.4593 40.6569 27.822 40.68 27.4174 40.3026C27.4007 40.2859 27.3839 40.2691 27.3671 40.2523L23.3547 36.2399L19.6567 39.9295L23.6691 43.9419C24.0758 44.3193 24.0968 44.9566 23.7195 45.3591C23.3421 45.7658 22.7069 45.7888 22.3023 45.4115C22.2834 45.3968 22.2688 45.3779 22.252 45.3591L18.2395 41.3487L13.399 46.1892L16.8287 49.6189L12.6904 53.7592L14.7952 55.8514L0.407816 70.2619C0.00111963 70.6392 -0.0219406 71.2765 0.355406 71.679C0.732753 72.0857 1.36795 72.1088 1.77465 71.7314C1.78932 71.7125 1.80819 71.6979 1.82287 71.679L16.2144 57.2895L18.3213 59.3964L22.4658 55.2498L25.8955 58.6815L62.6344 21.9426L65.127 24.4708C65.7831 25.1249 66.8397 25.1249 67.4938 24.4708C68.1499 23.8147 68.1499 22.7581 67.4938 22.104H67.5273Z" fill="black"/>
</g>
<defs>
<clipPath id="clip0_62_567">
<rect width="72" height="72" fill="white"/>
</clipPath>
</defs>
</svg>
