<svg width="72" height="72" viewBox="0 0 72 72" fill="none" xmlns="http://www.w3.org/2000/svg">
<path d="M33.8906 4.35938H21.0938V25.4531H0V38.1094H33.8906V4.35938Z" fill="black"/>
<path d="M16.8749 21.2343V5.59521L1.23584 21.2343H16.8749Z" fill="black"/>
<path d="M38.1094 21.2344V42.3281H8.4375V62.1859L13.8922 67.6406H66.5453L72 62.1859V26.6891L66.5453 21.2344H38.1094ZM38.1094 61.3125H16.875V48.6562H38.1094V61.3125ZM65.6719 61.3125H44.4375V48.6562H65.6719V61.3125ZM65.6719 40.2188H44.4375V27.5625H65.6719V40.2188Z" fill="black"/>
<path d="M48.6562 52.875H61.4531V57.0938H48.6562V52.875Z" fill="black"/>
<path d="M21.0938 52.875H33.8906V57.0938H21.0938V52.875Z" fill="black"/>
<path d="M48.6562 31.7812H61.4531V36H48.6562V31.7812Z" fill="black"/>
</svg>
