<svg width="72" height="72" viewBox="0 0 72 72" fill="none" xmlns="http://www.w3.org/2000/svg">
<path d="M57.375 68.625H47.2511C46.0103 68.625 45.0011 67.6159 45.0011 66.375L45 59.625C45 59.4506 44.9595 59.2774 44.8819 59.1221L43.9875 57.3334C42.4417 54.243 41.625 50.7825 41.625 47.3265C41.625 45.8561 41.7713 44.3801 42.0593 42.939L42.7286 39.5955C42.7905 39.2906 42.7219 38.9734 42.5407 38.7214L37.125 31.14V14.1019L43.3733 9.93488L42.1256 8.06287L36 12.1478L29.8744 8.064L28.6267 9.936L34.875 14.1019V31.14L29.4604 38.7214C29.2793 38.9745 29.2106 39.2906 29.2725 39.5955L29.9419 42.9379C30.2288 44.3801 30.375 45.8573 30.375 47.3265C30.375 50.7825 29.5583 54.243 28.0125 57.3334L27.1181 59.121C27.0405 59.2774 27 59.4506 27 59.625L26.9989 66.375C26.9989 67.6159 25.9898 68.625 24.7489 68.625H14.625C13.3841 68.625 12.375 67.6159 12.375 66.375C12.375 65.1341 13.3841 64.125 14.625 64.125H18C18.351 64.125 18.6806 63.9607 18.8944 63.6829C19.1059 63.4039 19.1779 63.0428 19.0856 62.7041L17.019 55.125C16.1775 52.0414 15.75 48.8543 15.75 45.6536C15.75 44.595 15.9199 43.5488 16.254 42.543C16.6658 41.3078 16.875 40.0219 16.875 38.7214C16.875 36.7504 16.3688 34.7985 15.4114 33.075C12.6889 28.1734 11.25 22.6192 11.25 17.0134C11.25 13.2795 11.709 9.55125 12.6135 5.931L13.2525 3.375H58.7475L59.3865 5.931C60.291 9.55125 60.75 13.2795 60.75 17.0134C60.75 22.6192 59.3111 28.1734 56.5886 33.075C55.6312 34.7985 55.125 36.7504 55.125 38.7214C55.125 40.0219 55.3342 41.3078 55.746 42.543C56.0801 43.5488 56.25 44.595 56.25 45.6536C56.25 48.8543 55.8225 52.0414 54.981 55.125L52.9144 62.7041C52.8221 63.0428 52.893 63.405 53.1056 63.6829C53.3194 63.9607 53.649 64.125 54 64.125H57.375C58.6159 64.125 59.625 65.1341 59.625 66.375C59.625 67.6159 58.6159 68.625 57.375 68.625Z" fill="black"/>
</svg>
