<svg width="72" height="72" viewBox="0 0 72 72" fill="none" xmlns="http://www.w3.org/2000/svg">
<path d="M34.5 66C14.937 66 7.26 63.0195 6.942 62.8935C6.6637 62.782 6.42521 62.5896 6.2573 62.3412C6.08939 62.0928 5.99977 61.7998 6 61.5V33C6 32.6022 6.15804 32.2206 6.43934 31.9393C6.72065 31.658 7.10218 31.5 7.5 31.5C10.3614 31.4878 13.184 32.1626 15.7304 33.4677C18.2769 34.7728 20.473 36.67 22.134 39C25.4496 37.5638 29.1117 37.1244 32.673 37.7355C36.2345 38.199 39.6286 39.5266 42.5595 41.6025C43.053 40.15 43.8903 38.8382 45 37.779C45.4651 37.3721 45.8411 36.8734 46.1044 36.3143C46.3677 35.7552 46.5126 35.1477 46.53 34.53C46.53 32.79 46.521 30.63 46.512 29.0775L45.729 29.3385C44.9384 29.605 44.089 29.6449 43.277 29.4534C42.465 29.262 41.7228 28.8471 41.1345 28.2555L40.0845 27.2055C39.8794 26.9947 39.6144 26.8523 39.3255 26.7975L38.25 26.58C36.329 26.1863 34.6373 25.0588 33.5347 23.4371C32.4322 21.8155 32.0057 19.8277 32.346 17.8965C33.813 9.7815 35.928 6 39 6C41.961 6 48.237 7.716 52.98 9.15C54.5821 9.6389 56.0441 10.5036 57.2444 11.672C58.4446 12.8403 59.3482 14.2786 59.88 15.867L61.3065 20.1465C64.419 29.4805 66.0039 39.2558 66 49.095V54.09C65.9948 56.5987 65.0935 59.023 63.4588 60.9259C61.824 62.8288 59.5632 64.0852 57.084 64.4685C49.6043 65.5376 42.0555 66.0495 34.5 66Z" fill="black"/>
</svg>
