<svg width="72" height="72" viewBox="0 0 72 72" fill="none" xmlns="http://www.w3.org/2000/svg">
<g clip-path="url(#clip0_74_525)">
<path d="M49.6315 31.0743C49.4394 30.8196 49.139 30.6697 48.82 30.6697H36.9958L40.2573 1.12792C40.3191 0.570104 39.917 0.0680041 39.3591 0.00619415C38.9011 -0.0444392 38.4662 0.219396 38.2999 0.649357L22.2261 42.1623C22.0234 42.6856 22.2833 43.274 22.8066 43.4767C22.9236 43.5221 23.0479 43.5453 23.1734 43.5453H35.8524L36.5386 71.0096C36.5513 71.511 36.9279 71.9281 37.4254 71.9918C37.4684 71.9974 37.5118 72.0001 37.5551 72.0001C38.0081 71.9998 38.4063 71.6995 38.5311 71.2641L49.7961 31.9657C49.8841 31.6592 49.8232 31.3291 49.6315 31.0743Z" fill="black"/>
<path d="M44.1456 58.1443C43.6167 58.3317 43.3398 58.9126 43.5275 59.4414C43.7149 59.9703 44.2958 60.2472 44.8246 60.0597C58.5793 55.1791 65.7731 40.0722 60.8925 26.3176C57.8642 17.7832 50.6769 11.3938 41.8466 9.38603C41.2962 9.27697 40.7614 9.63462 40.6524 10.1852C40.5474 10.7149 40.8751 11.2341 41.3983 11.3673C54.5354 14.3544 62.7636 27.4256 59.7765 40.5626C57.9229 48.7145 52.0242 55.3493 44.1456 58.1443Z" fill="black"/>
<path d="M32.273 11.0503C32.8266 10.9585 33.201 10.4352 33.1093 9.88164C33.019 9.33788 32.5116 8.96516 31.9657 9.0417C17.5452 11.2687 7.66047 24.7641 9.88749 39.1847C11.7523 51.2596 21.6534 60.4808 33.8301 61.4833C33.8581 61.4855 33.8859 61.4865 33.9135 61.4865C34.4747 61.4855 34.9287 61.0298 34.9278 60.4688C34.927 59.9404 34.5212 59.501 33.9946 59.4578C20.571 58.35 10.5869 46.5698 11.6947 33.1461C12.622 21.9097 21.1308 12.7735 32.273 11.0503Z" fill="black"/>
<path d="M34.1014 64.559C18.6415 63.5782 6.53113 50.6616 6.53113 35.1534C6.53113 19.5739 18.7019 6.65305 34.2391 5.7386C34.7996 5.71388 35.234 5.23921 35.2093 4.67869C35.1845 4.11816 34.7099 3.6838 34.1494 3.70852C34.1395 3.70903 34.1297 3.70954 34.1197 3.71022C17.5099 4.68732 4.49902 18.4987 4.49902 35.1534C4.49902 51.732 17.4454 65.5385 33.9727 66.5871C33.9946 66.5884 34.0164 66.5891 34.0381 66.5891C34.5993 66.5886 35.0538 66.1334 35.0533 65.5722C35.0528 65.0364 34.6362 64.5929 34.1014 64.559Z" fill="black"/>
<path d="M42.3434 4.29579C41.7946 4.17928 41.2551 4.52982 41.1386 5.07866C41.0221 5.6275 41.3726 6.16702 41.9214 6.28353C41.9263 6.28454 41.9311 6.28556 41.936 6.28658C57.8791 9.57216 68.1399 25.1601 64.8541 41.1032C62.5279 52.3911 53.8357 61.2875 42.6051 63.8754C42.0579 64.0007 41.716 64.5458 41.8413 65.0929C41.9666 65.6401 42.5118 65.982 43.0589 65.8567C60.0153 61.952 70.5958 45.0404 66.6912 28.084C63.9256 16.0754 54.413 6.7814 42.3434 4.29579Z" fill="black"/>
</g>
<defs>
<clipPath id="clip0_74_525">
<rect width="72" height="72" fill="white"/>
</clipPath>
</defs>
</svg>
