<svg width="72" height="72" viewBox="0 0 72 72" fill="none" xmlns="http://www.w3.org/2000/svg">
<path d="M8.57812 9.28125C8.57812 8.11631 7.63369 7.17188 6.46875 7.17188H2.10938C0.944437 7.17188 0 8.11631 0 9.28125V37.4062C0 38.5712 0.944437 39.5156 2.10938 39.5156H6.46875C7.63369 39.5156 8.57812 38.5712 8.57812 37.4062V28.2656H12.7969V18.4219H8.57812V9.28125Z" fill="black"/>
<path d="M69.8906 7.17188H65.5312C64.3663 7.17188 63.4219 8.11631 63.4219 9.28125V18.4219H59.2031V28.2656H63.4219V37.4062C63.4219 38.5712 64.3663 39.5156 65.5312 39.5156H69.8906C71.0556 39.5156 72 38.5712 72 37.4062V9.28125C72 8.11631 71.0556 7.17188 69.8906 7.17188Z" fill="black"/>
<path d="M50.2383 12.7969C47.617 12.7969 45.4922 14.9217 45.4922 17.543C45.4922 14.9217 43.3673 12.7969 40.7461 12.7969C38.1248 12.7969 36 14.9217 36 17.543C36 14.9217 33.8752 12.7969 31.2539 12.7969C28.6327 12.7969 26.5078 14.9217 26.5078 17.543C26.5078 14.9217 24.383 12.7969 21.7617 12.7969C19.1405 12.7969 17.0156 14.9217 17.0156 17.543V26.4049C18.295 25.7954 19.7253 25.4531 21.2344 25.4531H35.2969C35.5347 25.4531 35.769 25.4675 36 25.4931C39.1596 25.8441 41.625 28.5296 41.625 31.7812V32.4844C41.625 32.937 41.5981 33.3832 41.546 33.8221C43.7861 33.4417 45.4922 31.493 45.4922 29.1445C45.4922 31.7658 47.617 33.8906 50.2383 33.8906C52.8595 33.8906 54.9844 31.7658 54.9844 29.1445V17.543C54.9844 14.9217 52.8595 12.7969 50.2383 12.7969Z" fill="black"/>
<path d="M45.4922 36.7449C44.1146 37.6082 42.4882 38.1094 40.7461 38.1094C40.7219 38.1094 40.698 38.1082 40.6738 38.1081C39.0914 41.4315 35.7006 43.7344 31.7812 43.7344H28.9688V44.3779C28.9688 45.5137 28.0959 46.491 26.9613 46.5445C25.75 46.6016 24.75 45.6363 24.75 44.4375V41.625C24.75 40.4601 25.6944 39.5156 26.8594 39.5156H30.375C34.2582 39.5156 37.4062 36.3676 37.4062 32.4844V31.7812C37.4062 30.6163 36.4618 29.6719 35.2969 29.6719H21.2344C18.1278 29.6719 15.6094 32.1903 15.6094 35.2969V44.4375C15.6094 50.0167 19.9642 54.5979 25.4531 54.9612V62.7188C25.4531 63.8837 26.3976 64.8281 27.5625 64.8281H44.4375C45.6024 64.8281 46.5469 63.8837 46.5469 62.7188V54.7725C51.355 53.7923 54.9844 49.5308 54.9844 44.4375V36.7449C53.6068 37.6082 51.9803 38.1094 50.2383 38.1094C48.4962 38.1094 46.8697 37.6082 45.4922 36.7449Z" fill="black"/>
</svg>
