<svg width="242" height="56" viewBox="0 0 242 56" fill="none" xmlns="http://www.w3.org/2000/svg">
<path d="M235.6 11.1856L241.351 16.9763C241.552 17.1362 241.701 17.3521 241.778 17.5967C241.895 19.022 240.816 19.0999 239.714 19.1796C239.237 19.214 238.756 19.2489 238.366 19.3933C236.432 19.9167 234.707 21.0223 233.424 22.56C232.14 24.0977 231.361 25.9931 231.192 27.9888C231.068 28.2193 230.88 28.409 230.65 28.5351C230.422 28.6613 230.161 28.7184 229.899 28.6998C229.596 28.6729 229.312 28.5402 229.097 28.3248L227.21 26.4242C227.224 26.5543 227.224 26.6831 227.224 26.7867V28.0405C227.224 28.1197 227.226 28.196 227.217 28.2722C227.204 28.3576 227.175 28.4428 227.108 28.5315V28.6479C227.108 28.7073 227.115 28.7626 227.122 28.8187C227.135 28.9334 227.151 29.0517 227.108 29.2167C227.066 29.3706 227.062 29.5502 227.057 29.7104C227.055 29.8056 227.053 29.8941 227.043 29.9663C227.029 30.0665 227.029 30.1734 227.021 30.2802C227.013 30.3802 226.996 30.4801 226.952 30.5738C226.891 30.705 226.871 30.8302 226.865 30.9575C226.861 31.0184 226.861 31.0797 226.861 31.1426L226.784 31.5432L223.851 45.5286L223.618 46.5755L223.527 48.1008L222.234 54.7057L222.028 55.7398H117.422L116.918 55.2356L116.827 55.6752H105.634L99.4035 49.4063L99.9981 46.5755H96.4823L94.298 44.3653C91.5871 46.3394 88.3057 47.3741 84.9528 47.3124C81.3486 47.4542 77.8349 46.162 75.1812 43.7191L71.7817 40.2939L71.045 43.7319C70.9546 44.2231 70.8382 44.6886 70.7089 45.1409L70.5926 45.5675L70.3988 46.1878C70.3828 46.2417 70.3612 46.2938 70.3342 46.343C70.1417 46.9128 69.9129 47.4698 69.6491 48.0103C69.656 48.0312 69.656 48.054 69.6491 48.0749C69.6152 48.1466 69.5763 48.2156 69.5327 48.2817C69.3376 48.6679 69.1219 49.0433 68.8864 49.4063C68.8428 49.4723 68.8039 49.5415 68.7701 49.6132L68.628 49.7682C68.312 50.2213 67.9666 50.653 67.5939 51.0607C67.4916 51.163 67.3894 51.259 67.2855 51.3533C67.1794 51.4497 67.0717 51.5444 66.9605 51.6423L66.6762 51.9138C66.497 52.0627 66.3136 52.2064 66.1263 52.3449C65.9719 52.4591 65.8148 52.5696 65.6551 52.6764C62.9913 54.2547 59.9185 55.006 56.827 54.835C52.5616 54.835 49.1492 53.5941 46.9906 51.4227L40.9156 45.3089C38.4891 46.682 35.7415 47.3868 32.9536 47.3511C29.3602 47.4623 25.8678 46.1527 23.2336 43.7061L19.8343 40.2809L18.7356 45.5675L18.5158 46.6144H7.07677L0.820801 40.3067L1.14394 38.7815L8.02032 5.75688L8.22708 4.72285H19.7049L20.0022 5.00726V4.72285H97.3355L97.6199 5.00726V4.72285H108.813L115.069 11.0305L114.759 12.5428L114.423 14.1973H117.641L118.146 14.7014C119.562 13.8714 121.17 13.4259 122.812 13.4088C124.019 13.385 125.217 13.6143 126.33 14.0818C127.443 14.5493 128.446 15.2446 129.274 16.1231L129.106 15.9292L132.144 18.9926C133.992 15.5157 138.141 13.4088 143.776 13.4088C148.146 13.4088 151.364 14.5204 153.315 16.5367L155.513 18.7471L156.25 15.1925L156.469 14.1584H167.675L170.882 17.3769L171.333 15.2054L171.554 14.1714H193.605L194.199 14.766C195.693 13.8847 197.403 13.4371 199.137 13.4734C200.18 13.4327 201.219 13.6237 202.181 14.0327C203.141 14.4417 204 15.0585 204.694 15.8388C204.658 15.7982 204.624 15.7575 204.589 15.7176C204.527 15.6435 204.465 15.5711 204.399 15.5041L205.522 16.6272C206.501 15.6141 207.677 14.8118 208.977 14.2695C210.277 13.7272 211.674 13.4562 213.083 13.4734C213.831 13.4274 214.578 13.4911 215.302 13.6605L214.079 12.4265C213.912 12.2481 213.799 12.0262 213.754 11.7864C213.708 11.5467 213.732 11.2988 213.82 11.0717C213.909 10.8445 214.061 10.6472 214.258 10.5027C214.455 10.3582 214.688 10.2723 214.932 10.255H215.914C216.179 10.2298 216.442 10.1909 216.702 10.1386C218.076 9.84989 219.368 9.25948 220.486 8.40997C221.605 7.56056 222.52 6.47337 223.166 5.22697C223.222 5.13056 223.273 5.0314 223.32 4.9297V4.86509C223.765 3.90775 224.035 2.8794 224.122 1.82755C224.144 1.50071 224.291 1.19469 224.531 0.971587C224.771 0.748404 225.087 0.624703 225.414 0.625492H225.518C225.713 0.64411 225.904 0.707381 226.072 0.810412C226.24 0.913523 226.382 1.05363 226.488 1.22009C227.418 2.12489 232.588 7.38549 232.588 7.38549C233.019 7.84874 232.987 8.45014 232.954 9.05861C232.933 9.43485 232.913 9.81384 233.001 10.1645C233.237 10.2067 233.475 10.2387 233.712 10.2603C233.941 10.2809 234.169 10.2921 234.398 10.2937C234.665 10.2993 234.926 10.3882 235.141 10.548C235.356 10.7078 235.517 10.9306 235.6 11.1856Z" fill="#1A1A1A"/>
<path d="M59.981 15.4378H68.1499L63.5743 37.1396C62.7342 41.2499 61.1313 43.6025 58.7014 45.2698C56.2435 46.696 53.4213 47.3701 50.5842 47.2086C45.1814 47.2086 39.9982 44.9467 39.4812 39.4533H47.7018C47.9603 40.7459 49.1495 41.4826 50.959 41.4826C53.402 41.4826 54.5264 40.0092 55.0306 37.6955L55.5217 35.3042H55.3408C54.6194 36.0971 53.7445 36.7351 52.7691 37.1794C51.7936 37.6238 50.7382 37.8653 49.6665 37.8893C44.91 37.8893 41.1356 34.1021 41.2132 28.5571C41.3166 22.0944 45.5303 14.7527 52.6006 14.7527C53.9404 14.6625 55.2781 14.9578 56.4554 15.6037C57.6328 16.2495 58.6005 17.2191 59.2442 18.3977H59.3864L59.981 15.4378ZM52.9624 31.8273C56.1034 31.8273 57.8483 28.2082 57.9 25.0931C57.9 23.0122 57.0857 20.8794 54.6816 20.8794C51.3984 20.8794 49.7311 24.5373 49.6794 27.6781C49.6794 29.798 50.4937 31.8273 52.8978 31.8273M144.669 32.5253C144.669 33.9083 143.479 34.4641 141.915 34.4641C139.33 34.4641 138.465 33.1715 138.452 31.362H130.322C130.179 38.1091 136.203 39.7764 141.554 39.7764C148.391 39.7764 152.825 36.8165 152.916 30.9096C152.916 26.1917 148.895 24.7571 144.941 23.8393C141.903 23.1414 140.572 22.6373 140.584 21.4869C140.598 20.3365 141.955 19.8712 143.286 19.8712C144.953 19.8712 146.09 20.4657 146.207 21.991H154.105C154.014 16.3555 148.934 14.7011 143.764 14.7011C137.482 14.7011 132.583 17.5575 132.506 22.9604C132.506 27.2128 135.375 28.7769 139.705 29.8885C142.484 30.6252 144.694 30.8578 144.669 32.5253ZM205.069 18.9406H204.927C204.576 17.6677 203.799 16.5535 202.727 15.7823C201.655 15.0112 200.351 14.6297 199.033 14.7011C195.518 14.7011 193.373 16.446 191.343 19.0828H191.201L191.951 15.4378H183.729L178.805 38.988H187.401L189.986 26.2822C190.58 23.5162 191.989 21.5774 194.122 21.5774C196.255 21.5774 196.539 23.2835 196.099 25.3646L193.256 38.988H201.851L204.437 26.2822C205.031 23.3353 206.44 21.5774 208.572 21.5774C210.705 21.5774 210.99 23.1931 210.55 25.3646L207.706 38.988H216.302L219.378 24.9897C220.671 19.0828 218.694 14.6493 213.02 14.6493C211.44 14.6428 209.886 15.0322 208.497 15.7819C207.109 16.5316 205.93 17.6176 205.069 18.9406ZM2.39795 38.988H11.2778L18.1412 5.96338H9.27431L2.39795 38.988ZM29.1278 14.7398C35.1252 14.7398 40.8513 18.0228 40.7608 25.455C40.6832 33.5852 35.1511 39.6731 26.6978 39.6731C20.8813 39.6731 15.065 36.4417 15.1683 29.0483C15.3105 21.1121 20.7651 14.7398 29.1278 14.7398ZM26.9435 33.9083C30.7307 33.9083 32.1137 28.4149 32.1137 25.1835C32.1137 22.87 31.4028 20.6079 28.9081 20.6079C25.1597 20.6079 23.8801 26.4244 23.8801 29.4232C23.8801 31.8273 24.5522 33.9083 26.9952 33.9083M21.1011 5.96338L19.8085 12.5683H94.3757L95.6683 5.96338H21.1011ZM81.0754 14.7398C87.0728 14.7398 92.7988 18.0228 92.7084 25.455C92.6308 33.5852 87.0858 39.6731 78.6325 39.6731C72.816 39.6731 66.9995 36.4417 67.1159 29.0483C67.2968 21.1121 72.7514 14.7398 81.0754 14.7398ZM78.9298 33.9083C82.717 33.9083 84.1 28.4149 84.1 25.1835C84.1 22.87 83.3762 20.6079 80.8816 20.6079C77.146 20.6079 75.8535 26.4244 75.8535 29.4232C75.8535 31.8273 76.5256 33.9083 78.9815 33.9083M98.7188 5.96338L97.4262 12.5683H106.009L107.301 5.96338H98.7188ZM91.8424 38.988H100.438L105.362 15.4378H96.7152L91.8424 38.988ZM119.27 39.7764C117.902 39.8736 116.534 39.5877 115.319 38.9507C114.105 38.3137 113.092 37.3508 112.394 36.1703H112.252L109.667 48.0875H100.968L107.948 15.4378H116.116L115.47 18.5786C116.323 17.4185 117.428 16.4668 118.702 15.7951C119.976 15.1235 121.385 14.7494 122.825 14.7011C127.995 14.7011 131.032 19.1345 130.942 24.8993C130.826 32.1504 127.064 39.7764 119.219 39.7764H119.27ZM118.934 21.3706C115.612 21.3706 113.57 25.6231 113.518 28.8933C113.518 31.1681 114.32 33.7015 117.047 33.7015C120.602 33.7015 122.062 28.9966 122.101 25.8557C122.101 23.723 121.481 21.3706 118.934 21.3706ZM168.633 35.2784H168.775L168.026 39.0139H176.194L181.119 15.4636H172.537L169.796 28.6217C169.241 31.349 167.56 32.7838 165.441 32.7838C163.32 32.7838 162.854 30.7932 163.282 28.7122L166.061 15.4636H157.478L154.44 30.0048C153.147 36.3383 156.095 39.7507 161.033 39.7507C162.583 39.7355 164.103 39.3118 165.437 38.522C166.77 37.7322 167.874 36.6045 168.633 35.2525V35.2784ZM214.738 48.204L216.03 41.5989H114.1L112.807 48.204H214.738Z" fill="white"/>
<path d="M223.978 21.9006C223.894 21.8941 223.812 21.8708 223.736 21.8321C223.659 21.7935 223.591 21.7402 223.536 21.6753C223.481 21.6104 223.44 21.5353 223.413 21.4542C223.387 21.373 223.378 21.2876 223.385 21.2026C223.492 20.0515 223.356 18.8905 222.984 17.7959C222.612 16.7014 222.012 15.6976 221.224 14.8508C220.437 14.0039 219.48 13.3328 218.416 12.8816C217.351 12.4304 216.203 12.2091 215.047 12.2323C214.876 12.2323 214.712 12.1642 214.591 12.043C214.47 11.9218 214.401 11.7575 214.401 11.586C214.401 11.4146 214.47 11.2503 214.591 11.1291C214.712 11.0079 214.876 10.9398 215.047 10.9398C215.357 10.9598 215.669 10.9598 215.979 10.9398C218.274 10.6952 220.412 9.65795 222.026 8.00655C223.641 6.35514 224.627 4.19287 224.819 1.89193C224.833 1.72964 224.906 1.57826 225.026 1.46803C225.145 1.3578 225.302 1.29684 225.465 1.29737C225.551 1.30389 225.633 1.32716 225.709 1.36582C225.785 1.40449 225.852 1.45779 225.907 1.52266C225.964 1.58753 226.005 1.66269 226.031 1.74381C226.058 1.82493 226.067 1.91041 226.06 1.99533C225.953 3.14538 226.089 4.3052 226.46 5.39891C226.832 6.49261 227.43 7.4956 228.215 8.34229C229.002 9.18897 229.957 9.86029 231.019 10.3124C232.083 10.7644 233.229 10.987 234.384 10.9656C234.555 10.9656 234.72 11.0337 234.841 11.1549C234.963 11.2761 235.03 11.4405 235.03 11.6119C235.03 11.7833 234.963 11.9477 234.841 12.0689C234.72 12.1901 234.555 12.2582 234.384 12.2582C231.929 12.2987 229.574 13.2447 227.773 14.9146C225.972 16.5844 224.851 18.8605 224.626 21.306C224.612 21.4683 224.539 21.6198 224.419 21.73C224.299 21.8402 224.142 21.9011 223.978 21.9006Z" fill="white"/>
</svg>
