<svg width="171" height="66" viewBox="0 0 171 66" fill="none" xmlns="http://www.w3.org/2000/svg">
<path d="M41.0638 0.55127C34.4372 0.55127 28.0822 3.18363 23.3966 7.86928L8.10463 23.1612C3.41898 27.8468 0.786621 34.2019 0.786621 40.8284C0.786621 54.6275 11.9729 65.8137 25.7719 65.8137C32.3984 65.8137 38.7535 63.1812 43.4391 58.4956L54.0166 47.9181C54.0166 47.9179 54.0168 47.9183 54.0166 47.9181L84.8359 17.0988C87.0738 14.8609 90.1089 13.6038 93.2737 13.6038C98.5721 13.6038 103.064 17.057 104.622 21.8357L114.348 12.1092C109.911 5.15954 102.13 0.55127 93.2737 0.55127C86.6472 0.55127 80.2921 3.18363 75.6065 7.86928L34.2097 49.2662C31.9718 51.504 28.9367 52.7612 25.7719 52.7612C19.1816 52.7612 13.8391 47.4188 13.8391 40.8284C13.8391 37.6636 15.0963 34.6285 17.3341 32.3906L32.626 17.0988C34.8638 14.8609 37.899 13.6038 41.0638 13.6038C46.3624 13.6038 50.8542 17.0572 52.4116 21.836L62.1383 12.1094C57.7011 5.15967 49.9207 0.55127 41.0638 0.55127Z" fill="#394149"/>
<path d="M86.4194 49.2662C84.1816 51.504 81.1464 52.7612 77.9817 52.7612C72.6839 52.7612 68.1923 49.3088 66.6345 44.531L56.9082 54.2572C61.3456 61.2059 69.1255 65.8137 77.9817 65.8137C84.6082 65.8137 90.9632 63.1812 95.6488 58.4956L137.046 17.0988C139.284 14.8609 142.319 13.6038 145.483 13.6038C152.074 13.6038 157.416 18.9462 157.416 25.5366C157.416 28.7013 156.159 31.7365 153.921 33.9743L138.629 49.2662C136.392 51.504 133.356 52.7612 130.192 52.7612C124.893 52.7612 120.402 49.3082 118.844 44.5299L109.118 54.2564C113.555 61.2057 121.335 65.8137 130.192 65.8137C136.818 65.8137 143.173 63.1812 147.859 58.4956L163.151 43.2037C167.836 38.5181 170.469 32.1631 170.469 25.5366C170.469 11.7376 159.283 0.55127 145.483 0.55127C138.857 0.55127 132.502 3.18363 127.816 7.86928L86.4194 49.2662Z" fill="#394149"/>
</svg>
