<svg width="268" height="77" viewBox="0 0 268 77" fill="none" xmlns="http://www.w3.org/2000/svg">
<path d="M38.5385 0.112793C33.5392 0.112793 28.5886 1.0976 23.9697 3.01066C19.3509 4.92394 15.1543 7.72805 11.6191 11.2631C8.084 14.7984 5.2799 18.995 3.36662 23.6138C1.45356 28.2326 0.46875 33.1832 0.46875 38.1825C0.46875 43.1819 1.45356 48.1325 3.36662 52.7513C5.2799 57.3701 8.084 61.5667 11.6191 65.102C15.1543 68.637 19.3509 71.4411 23.9697 73.3544C28.5886 75.2675 33.5392 76.2523 38.5385 76.2523V57.2174C36.0387 57.2174 33.5635 56.7251 31.2541 55.7684C28.9447 54.8118 26.8463 53.4098 25.0788 51.6423C23.3113 49.8747 21.9092 47.7763 20.9527 45.4669C19.9959 43.1575 19.5036 40.6823 19.5036 38.1825C19.5036 35.6828 19.9959 33.2076 20.9527 30.8982C21.9092 28.5887 23.3113 26.4903 25.0788 24.7228C26.8463 22.9553 28.9447 21.5532 31.2541 20.5967C33.5635 19.64 36.0387 19.1477 38.5385 19.1477V0.112793Z" fill="#2C71FC"/>
<path d="M38.5385 50.8724C45.547 50.8724 51.2283 45.191 51.2283 38.1825C51.2283 31.174 45.547 25.4927 38.5385 25.4927C31.5299 25.4927 25.8486 31.174 25.8486 38.1825C25.8486 45.191 31.5299 50.8724 38.5385 50.8724Z" fill="#2C71FC"/>
<path d="M0.46875 38.1821C0.46875 43.1814 1.45356 48.132 3.36662 52.7509C5.2799 57.3697 8.084 61.5663 11.6191 65.1016C15.1543 68.6366 19.3509 71.4407 23.9697 73.354C28.5886 75.2671 33.5392 76.2519 38.5385 76.2519C43.5378 76.2519 48.4884 75.2671 53.1072 73.354C57.7261 71.4407 61.9227 68.6366 65.4579 65.1016C68.993 61.5663 71.7971 57.3697 73.7104 52.7509C75.6234 48.132 76.6082 43.1814 76.6082 38.1821H57.5734C57.5734 40.6819 57.0811 43.1571 56.1243 45.4665C55.1678 47.7759 53.7657 49.8743 51.9982 51.6419C50.2307 53.4094 48.1323 54.8114 45.8229 55.768C43.5135 56.7247 41.0383 57.217 38.5385 57.217C36.0387 57.217 33.5635 56.7247 31.2541 55.768C28.9447 54.8114 26.8463 53.4094 25.0788 51.6419C23.3113 49.8743 21.9092 47.7759 20.9527 45.4665C19.9959 43.1571 19.5036 40.6819 19.5036 38.1821H0.46875Z" fill="#5BD0F4"/>
<path d="M51.2285 38.1818C51.2285 34.8162 49.8915 31.5885 47.5118 29.2086C45.1319 26.8287 41.9043 25.4917 38.5387 25.4917C35.1731 25.4917 31.9454 26.8287 29.5655 29.2086C27.1856 31.5885 25.8486 34.8162 25.8486 38.1818H38.5387H51.2285Z" fill="#5BD0F4"/>
<path d="M96.4905 23.8789H91.7622V50.147H96.4905V23.8789Z" fill="#2C71FC"/>
<path d="M99.5786 40.8401C99.5786 46.9193 103.782 50.6719 109.335 50.6719C114.889 50.6719 119.092 46.9193 119.092 40.8401C119.092 34.7609 114.889 31.0083 109.335 31.0083C103.782 31.0083 99.5786 34.7609 99.5786 40.8401ZM104.307 40.8401C104.307 37.2376 106.408 35.1362 109.335 35.1362C112.262 35.1362 114.364 37.2376 114.364 40.8401C114.364 44.4426 112.262 46.544 109.335 46.544C106.408 46.544 104.307 44.4426 104.307 40.8401Z" fill="#2C71FC"/>
<path d="M135.988 31.5337V34.0478H135.613C134.487 32.4343 132.686 31.0083 129.459 31.0083C125.03 31.0083 121.053 34.7609 121.053 40.5399C121.053 46.3189 125.03 50.0715 129.459 50.0715C132.686 50.0715 134.487 48.6078 135.538 47.1444H135.913V48.9457C135.913 52.5482 133.812 54.1993 130.734 54.1993C127.657 54.1993 126.081 52.5482 125.443 50.4091L121.203 52.248C122.179 55.0623 125.03 58.177 130.809 58.177C136.739 58.177 140.641 55.0623 140.641 49.0581V31.5337H135.988ZM130.885 46.0187C127.958 46.0187 125.781 43.9172 125.781 40.5399C125.781 37.1625 127.958 35.0611 130.885 35.0611C133.812 35.0611 135.988 37.1625 135.988 40.5399C135.988 43.9172 133.812 46.0187 130.885 46.0187Z" fill="#2C71FC"/>
<path d="M143.7 40.8401C143.7 46.9193 147.903 50.6719 153.457 50.6719C159.011 50.6719 163.213 46.9193 163.213 40.8401C163.213 34.7609 159.011 31.0083 153.457 31.0083C147.903 31.0083 143.7 34.7609 143.7 40.8401ZM148.428 40.8401C148.428 37.2376 150.53 35.1362 153.457 35.1362C156.384 35.1362 158.485 37.2376 158.485 40.8401C158.485 44.4426 156.384 46.544 153.457 46.544C150.53 46.544 148.428 44.4426 148.428 40.8401Z" fill="#2C71FC"/>
<path d="M166.925 26.1305C166.925 28.0445 168.389 29.3578 170.266 29.3578C172.141 29.3578 173.605 28.0445 173.605 26.1305C173.605 24.2168 172.141 22.9033 170.266 22.9033C168.389 22.9033 166.925 24.2168 166.925 26.1305ZM172.629 31.5343H167.902V50.1471H172.629V31.5343Z" fill="#5BD0F4"/>
<path d="M176.842 57.6517H181.572V47.7448H181.946C182.997 49.2459 184.798 50.6719 188.026 50.6719C192.453 50.6719 196.432 46.9193 196.432 40.8401C196.432 34.7609 192.453 31.0083 188.026 31.0083C184.798 31.0083 182.997 32.4343 181.872 34.048H181.495V31.5337H176.842V57.6517ZM186.599 46.6191C183.673 46.6191 181.495 44.5176 181.495 40.8401C181.495 37.1625 183.673 35.0611 186.599 35.0611C189.527 35.0611 191.703 37.1625 191.703 40.8401C191.703 44.5176 189.527 46.6191 186.599 46.6191Z" fill="#5BD0F4"/>
<path d="M199.191 36.7499C199.191 40.4274 202.267 41.7783 206.17 42.5289L207.147 42.7164C209.472 43.1667 210.523 43.7297 210.523 44.9305C210.523 46.1313 209.472 47.0694 207.297 47.0694C205.119 47.0694 203.357 46.1688 202.868 43.4669L198.515 44.5927C199.154 48.4954 202.417 50.6719 207.297 50.6719C212.024 50.6719 215.102 48.458 215.102 44.5553C215.102 40.6523 211.95 39.6018 207.747 38.7763L206.77 38.5885C204.819 38.2133 203.768 37.6879 203.768 36.4497C203.768 35.3239 204.745 34.6108 206.546 34.6108C208.348 34.6108 209.622 35.3613 210.073 37.3877L214.352 36.0744C213.451 33.0723 210.712 31.0083 206.546 31.0083C202.117 31.0083 199.191 33.0723 199.191 36.7499Z" fill="#5BD0F4"/>
<path d="M236.341 50.147V31.5342H231.613V41.1408C231.613 44.5932 229.925 46.6196 227.034 46.6196C224.482 46.6196 223.057 45.2312 223.057 42.4167V31.5342H218.328V42.6418C218.328 47.2576 221.219 50.4472 225.572 50.4472C228.985 50.4472 230.563 48.9462 231.313 47.3701H231.687V50.147H236.341Z" fill="#5BD0F4"/>
<path d="M240.534 31.5341V50.1469H245.264V39.0393C245.264 36.4875 246.464 35.0615 248.64 35.0615C250.517 35.0615 251.642 36.1123 251.642 38.1387V50.1469H256.371V39.0393C256.371 36.4875 257.572 35.0615 259.747 35.0615C261.625 35.0615 262.75 36.1123 262.75 38.1387V50.1469H267.479V37.9135C267.479 33.4104 264.701 31.2339 261.248 31.2339C258.209 31.2339 256.822 32.5848 255.921 34.1609H255.545C254.681 32.3973 253.143 31.2339 250.441 31.2339C247.739 31.2339 246.275 32.4347 245.564 33.8607H245.187V31.5341H240.534Z" fill="#5BD0F4"/>
</svg>
