<svg width="263" height="74" viewBox="0 0 263 74" fill="none" xmlns="http://www.w3.org/2000/svg">
<path fill-rule="evenodd" clip-rule="evenodd" d="M130.697 8.72788C133.23 6.19553 137.336 6.19553 139.868 8.72788C142.401 11.2604 142.401 15.3664 139.868 17.8989L124.428 33.3388C119.995 27.3978 120.477 18.9484 125.873 13.5523L130.697 8.72788Z" fill="#4F9E91"/>
<path fill-rule="evenodd" clip-rule="evenodd" d="M152.77 43.5633C155.303 46.0957 155.303 50.2018 152.77 52.7341C150.239 55.2667 146.132 55.2667 143.6 52.7341L128.16 37.2944C134.101 32.8615 142.55 33.3429 147.946 38.739L152.77 43.5633Z" fill="#EBE1C5"/>
<path fill-rule="evenodd" clip-rule="evenodd" d="M117.936 65.6361C115.403 68.1687 111.297 68.1687 108.765 65.6361C106.232 63.1036 106.232 58.9977 108.765 56.4651L124.205 41.0254C128.638 46.9664 128.156 55.4158 122.76 60.8118L117.936 65.6361Z" fill="#EBCC6E"/>
<path fill-rule="evenodd" clip-rule="evenodd" d="M95.8628 30.8014C93.3302 28.2688 93.3302 24.1629 95.8628 21.6304C98.3953 19.0978 102.501 19.0978 105.034 21.6304L120.474 37.0703C114.533 41.5032 106.083 41.0216 100.687 35.6257L95.8628 30.8014Z" fill="#ED834E"/>
<path fill-rule="evenodd" clip-rule="evenodd" d="M127.247 63.7452C130.982 59.5933 132.717 54.2806 132.454 49.0498L139.869 56.4649C139.887 56.4834 139.906 56.5018 139.925 56.5202V61.8141C139.925 65.3956 137.021 68.2989 133.44 68.2989C130.531 68.2989 128.069 66.3836 127.247 63.7452Z" fill="#ED834E"/>
<path fill-rule="evenodd" clip-rule="evenodd" d="M97.7532 40.1123C101.905 43.8467 107.218 45.5823 112.448 45.319L105.033 52.7341C105.015 52.7525 104.996 52.7711 104.978 52.7896H99.6843C96.1028 52.7898 93.1995 49.8862 93.1995 46.3048C93.1995 43.396 95.1148 40.9342 97.7532 40.1123Z" fill="#4F9E91"/>
<path fill-rule="evenodd" clip-rule="evenodd" d="M150.879 34.2517C146.728 30.5173 141.415 28.7817 136.185 29.0448L143.599 21.6299C143.618 21.6114 143.636 21.5928 143.655 21.5742H148.949C152.531 21.5742 155.434 24.4777 155.434 28.0592C155.434 30.9682 153.518 33.4298 150.879 34.2517Z" fill="#EBCC6E"/>
<path fill-rule="evenodd" clip-rule="evenodd" d="M121.386 10.6189C117.652 14.7706 115.916 20.0833 116.179 25.3143L108.764 17.8992C108.746 17.8807 108.727 17.8623 108.709 17.8439V12.5499C108.709 8.96847 111.612 6.06494 115.194 6.06494C118.103 6.06494 120.564 7.98049 121.386 10.6189Z" fill="#EBE1C5"/>
<path fill-rule="evenodd" clip-rule="evenodd" d="M115.193 0.789551C108.698 0.789551 103.432 6.05517 103.432 12.5506V14.838C99.5247 13.817 95.1939 14.8375 92.1316 17.8997C87.5387 22.4927 87.5387 29.9394 92.1316 34.5324L93.749 36.1498C90.2639 38.191 87.9233 41.9749 87.9233 46.3055C87.9233 52.8008 93.189 58.0665 99.6844 58.0665H101.972C100.951 61.9742 101.971 66.305 105.033 69.3671C109.626 73.96 117.073 73.96 121.666 69.3671L126.49 64.5429C130.746 60.2871 132.734 54.622 132.453 49.05L139.868 56.4652C144.461 61.0581 151.908 61.0581 156.501 56.4652C161.095 51.8722 161.095 44.4255 156.501 39.8327L154.885 38.2155C158.368 36.1742 160.71 32.3904 160.71 28.0598C160.71 21.5644 155.443 16.2988 148.948 16.2988H146.661C147.682 12.3909 146.661 8.06014 143.599 4.99785C139.006 0.404871 131.56 0.404871 126.967 4.99785L122.142 9.82222C117.887 14.078 115.899 19.7428 116.179 25.3149L108.764 17.8997C108.746 17.8813 108.727 17.8629 108.709 17.8445V12.5506C108.709 8.9691 111.612 6.06576 115.193 6.06576C118.102 6.06576 120.564 7.98113 121.386 10.6195C121.63 10.3487 121.882 10.0828 122.142 9.82222L125.349 6.61522C123.308 3.13011 119.524 0.789551 115.193 0.789551ZM143.654 21.575C143.636 21.5934 143.618 21.6121 143.599 21.6305L136.184 29.0454C141.415 28.7823 146.728 30.5177 150.879 34.2523C153.518 33.4304 155.434 30.9686 155.434 28.0598C155.434 24.4783 152.531 21.575 148.948 21.575H143.654ZM104.978 52.7903C104.996 52.7716 105.015 52.753 105.033 52.7346L112.448 45.3195C107.218 45.5828 101.905 43.8472 97.7533 40.113C95.1149 40.9349 93.1994 43.3965 93.1994 46.3055C93.1994 49.8869 96.1029 52.7903 99.6844 52.7903H104.978ZM133.439 73.5757C129.109 73.5757 125.325 71.235 123.283 67.7499L126.49 64.5429C126.751 64.2823 127.003 64.0164 127.247 63.7456C128.069 66.384 130.53 68.2995 133.439 68.2995C137.021 68.2995 139.924 65.3962 139.924 61.8147V56.5208C141.444 58.0207 143.27 59.0229 145.2 59.5271V61.8147C145.2 68.3101 139.935 73.5757 133.439 73.5757ZM139.868 8.72859C137.336 6.19623 133.23 6.19623 130.697 8.72859L125.873 13.5529C120.477 18.949 119.996 27.3985 124.428 33.3395L139.868 17.8996C142.401 15.367 142.401 11.2611 139.868 8.72859ZM152.77 52.7344C155.302 50.2019 155.302 46.096 152.77 43.5634L147.946 38.739C142.55 33.3431 134.1 32.8616 128.159 37.2945L143.599 52.7344C146.132 55.267 150.239 55.267 152.77 52.7344ZM117.935 65.6363C115.403 68.1689 111.297 68.1689 108.764 65.6363C106.232 63.1038 106.232 58.9979 108.764 56.4653L124.204 41.0254C128.637 46.9664 128.155 55.416 122.759 60.812L117.935 65.6363ZM95.8624 21.6305C93.33 24.163 93.33 28.2689 95.8624 30.8015L100.687 35.6258C106.083 41.0218 114.532 41.5033 120.473 37.0704L105.033 21.6305C102.501 19.0981 98.3949 19.0981 95.8624 21.6305Z" fill="#3D3A2C"/>
<path d="M0.87207 24.5723H6.63971V42.4945H16.5457V47.3497H0.87207V24.5723Z" fill="#3D3A2C"/>
<path d="M27.0175 47.8385C25.0841 47.8385 23.3895 47.4909 21.934 46.7958C20.4785 46.0788 19.3489 45.1012 18.5451 43.8631C17.7631 42.603 17.3721 41.1584 17.3721 39.529C17.3721 37.8998 17.7631 36.466 18.5451 35.2278C19.3489 33.9678 20.4785 32.9902 21.934 32.2951C23.3895 31.5781 25.0841 31.2197 27.0175 31.2197C28.951 31.2197 30.6453 31.5781 32.1008 32.2951C33.5564 32.9902 34.6752 33.9678 35.4571 35.2278C36.261 36.466 36.6628 37.8998 36.6628 39.529C36.6628 41.1584 36.261 42.603 35.4571 43.8631C34.6752 45.1012 33.5564 46.0788 32.1008 46.7958C30.6453 47.4909 28.951 47.8385 27.0175 47.8385ZM27.0175 43.3742C28.1688 43.3742 29.0813 43.0375 29.7546 42.3641C30.4499 41.6689 30.7974 40.7239 30.7974 39.529C30.7974 38.3343 30.4499 37.4002 29.7546 36.7268C29.0813 36.0315 28.1688 35.6841 27.0175 35.6841C25.866 35.6841 24.9428 36.0315 24.2478 36.7268C23.5742 37.4002 23.2375 38.3343 23.2375 39.529C23.2375 40.7239 23.5742 41.6689 24.2478 42.3641C24.9428 43.0375 25.866 43.3742 27.0175 43.3742Z" fill="#3D3A2C"/>
<path d="M47.4361 54.8445C46.3934 54.8445 45.3397 54.7467 44.2753 54.5512C43.2326 54.3556 42.3309 54.095 41.5707 53.7691V49.7937C43.2868 50.5322 45.2419 50.9015 47.4361 50.9015C49.0219 50.9015 50.1625 50.5756 50.8575 49.924C51.5745 49.2723 51.9329 48.3164 51.9329 47.0564V46.1115C51.303 46.6545 50.5209 47.0781 49.5867 47.3823C48.6743 47.6865 47.6967 47.8385 46.654 47.8385C45.003 47.8385 43.5475 47.4909 42.2875 46.7958C41.0276 46.1005 40.0391 45.1229 39.3223 43.8631C38.627 42.603 38.2795 41.1584 38.2795 39.529C38.2795 37.8781 38.627 36.4226 39.3223 35.1627C40.0174 33.9026 40.9949 32.9358 42.255 32.2625C43.5149 31.5674 44.9596 31.2197 46.5888 31.2197C48.8265 31.2197 50.6729 31.904 52.1284 33.2727V31.7084H57.6681V46.2744C57.6681 48.9898 56.8316 51.0972 55.1589 52.5961C53.508 54.095 50.9336 54.8445 47.4361 54.8445ZM48.0878 43.4068C48.9785 43.4068 49.7714 43.1787 50.4665 42.7225C51.1617 42.2663 51.6504 41.6581 51.9329 40.8977V38.1606C51.6287 37.4002 51.1291 36.8027 50.434 36.3682C49.7387 35.9122 48.9568 35.6841 48.0878 35.6841C46.9148 35.6841 45.9697 36.0315 45.2529 36.7268C44.5359 37.4002 44.1775 38.3233 44.1775 39.4965C44.1775 40.6913 44.5359 41.6471 45.2529 42.3641C45.9697 43.0592 46.9148 43.4068 48.0878 43.4068Z" fill="#3D3A2C"/>
<path d="M68.768 47.8385C66.8346 47.8385 65.1402 47.4909 63.6847 46.7958C62.2292 46.0788 61.0994 45.1012 60.2958 43.8631C59.5136 42.603 59.1226 41.1584 59.1226 39.529C59.1226 37.8998 59.5136 36.466 60.2958 35.2278C61.0994 33.9678 62.2292 32.9902 63.6847 32.2951C65.1402 31.5781 66.8346 31.2197 68.768 31.2197C70.7014 31.2197 72.3958 31.5781 73.8513 32.2951C75.3068 32.9902 76.4257 33.9678 77.2078 35.2278C78.0115 36.466 78.4135 37.8998 78.4135 39.529C78.4135 41.1584 78.0115 42.603 77.2078 43.8631C76.4257 45.1012 75.3068 46.0788 73.8513 46.7958C72.3958 47.4909 70.7014 47.8385 68.768 47.8385ZM68.768 43.3742C69.9193 43.3742 70.8317 43.0375 71.5053 42.3641C72.2004 41.6689 72.548 40.7239 72.548 39.529C72.548 38.3343 72.2004 37.4002 71.5053 36.7268C70.8317 36.0315 69.9193 35.6841 68.768 35.6841C67.6167 35.6841 66.6933 36.0315 65.9982 36.7268C65.3247 37.4002 64.988 38.3343 64.988 39.529C64.988 40.7239 65.3247 41.6689 65.9982 42.3641C66.6933 43.0375 67.6167 43.3742 68.768 43.3742Z" fill="#3D3A2C"/>
<path d="M170.399 24.5723H176.168V47.3497H170.399V24.5723Z" fill="#3D3A2C"/>
<path d="M179.088 31.7084H184.628V33.2727C186.083 31.904 187.929 31.2197 190.167 31.2197C191.796 31.2197 193.242 31.5674 194.501 32.2625C195.762 32.9358 196.738 33.9026 197.433 35.1627C198.128 36.4009 198.477 37.8456 198.477 39.4965C198.477 41.1258 198.128 42.5813 197.433 43.8631C196.738 45.1229 195.762 46.1005 194.501 46.7958C193.263 47.4909 191.818 47.8385 190.167 47.8385C189.125 47.8385 188.125 47.6755 187.17 47.3496C186.236 47.0456 185.453 46.6219 184.823 46.0788V54.4859H179.088V31.7084ZM188.668 43.3742C189.842 43.3742 190.787 43.0267 191.502 42.3315C192.22 41.6364 192.579 40.6913 192.579 39.4965C192.579 38.3016 192.22 37.3677 191.502 36.6941C190.787 35.999 189.842 35.6514 188.668 35.6514C187.8 35.6514 187.017 35.8795 186.322 36.3357C185.626 36.7702 185.128 37.3677 184.823 38.1279V40.8977C185.128 41.6581 185.626 42.2663 186.322 42.7225C187.017 43.157 187.8 43.3742 188.668 43.3742Z" fill="#3D3A2C"/>
<path d="M207.027 47.8385C205.767 47.8385 204.453 47.7082 203.085 47.4474C201.716 47.2086 200.629 46.8609 199.826 46.4047V42.2012C200.716 42.7225 201.78 43.157 203.019 43.5047C204.278 43.8304 205.43 43.9934 206.474 43.9934C207.233 43.9934 207.787 43.939 208.134 43.8304C208.483 43.7218 208.656 43.5047 208.656 43.1787C208.656 42.918 208.537 42.7116 208.298 42.5596C208.081 42.3858 207.667 42.2119 207.059 42.0382C206.474 41.8428 205.789 41.6364 205.006 41.419C203.682 41.028 202.64 40.6261 201.879 40.2133C201.118 39.8006 200.554 39.2792 200.183 38.6493C199.815 38.0193 199.63 37.2264 199.63 36.2706C199.63 34.576 200.293 33.3161 201.618 32.4906C202.964 31.6433 204.8 31.2197 207.125 31.2197C208.255 31.2197 209.439 31.3393 210.676 31.5781C211.937 31.8172 212.881 32.1322 213.512 32.5232V36.6616C212.861 36.2271 211.99 35.8685 210.904 35.5862C209.84 35.3038 208.84 35.1627 207.906 35.1627C207.169 35.1627 206.592 35.2386 206.18 35.3906C205.767 35.5211 205.561 35.76 205.561 36.1076C205.561 36.4335 205.767 36.6833 206.18 36.8571C206.592 37.0308 207.331 37.2481 208.395 37.5087C209.09 37.6826 209.384 37.7586 209.275 37.7368C210.665 38.1062 211.74 38.519 212.501 38.9752C213.262 39.4314 213.793 39.9745 214.098 40.6044C214.424 41.2126 214.587 41.9948 214.587 42.9506C214.587 44.4496 213.935 45.6443 212.632 46.535C211.35 47.404 209.481 47.8385 207.027 47.8385Z" fill="#3D3A2C"/>
<path d="M223.149 47.8386C220.999 47.8386 219.381 47.2411 218.295 46.0464C217.231 44.8515 216.698 43.2766 216.698 41.3215V31.7085H222.434V40.6696C222.434 42.4728 223.248 43.3743 224.877 43.3743C225.616 43.3743 226.29 43.2005 226.897 42.8529C227.505 42.5053 228.005 41.9948 228.396 41.3215V31.7085H234.131V47.3497H228.593V45.6553C227.919 46.3721 227.104 46.9152 226.147 47.2846C225.193 47.6539 224.193 47.8386 223.149 47.8386Z" fill="#3D3A2C"/>
<path d="M237.067 31.7084H242.379V33.403C243.031 32.7079 243.781 32.1756 244.627 31.8062C245.474 31.4152 246.375 31.2197 247.332 31.2197C248.505 31.2197 249.439 31.3935 250.135 31.7411C250.852 32.0887 251.427 32.6101 251.861 33.3052C252.512 32.6535 253.306 32.1429 254.241 31.7738C255.175 31.4044 256.12 31.2197 257.075 31.2197C259.139 31.2197 260.606 31.752 261.474 32.8165C262.343 33.8592 262.777 35.3689 262.777 37.3458V47.3496H257.303V38.1606C257.303 37.2916 257.14 36.6616 256.814 36.2706C256.489 35.8795 255.945 35.6841 255.186 35.6841C254.208 35.6841 253.414 36.0315 252.806 36.7268C252.828 37.0959 252.839 37.6609 252.839 38.4212V47.3496H247.365V37.9325C247.365 37.1286 247.224 36.5529 246.941 36.2054C246.658 35.8578 246.158 35.6841 245.443 35.6841C244.333 35.6841 243.379 36.303 242.574 37.5414V47.3496H237.067V31.7084Z" fill="#3D3A2C"/>
</svg>
