<svg width="261" height="64" viewBox="0 0 261 64" fill="none" xmlns="http://www.w3.org/2000/svg">
<path d="M76.5127 44.7305H95.1908V39.1046H83.1513V17.9136H76.5127V44.7305Z" fill="#3C2B1F"/>
<path d="M106.257 40.9796C103.594 40.9796 102.207 38.6542 102.207 35.1661C102.207 31.6781 103.594 29.3152 106.257 29.3152C108.92 29.3152 110.345 31.6781 110.345 35.1661C110.345 38.6542 108.92 40.9796 106.257 40.9796ZM106.295 45.3303C112.483 45.3303 116.534 40.9421 116.534 35.1661C116.534 29.3902 112.483 25.002 106.295 25.002C100.144 25.002 96.0181 29.3902 96.0181 35.1661C96.0181 40.9421 100.144 45.3303 106.295 45.3303Z" fill="#3C2B1F"/>
<path d="M127.245 51.3692C130.096 51.3692 132.609 50.7316 134.297 49.2313C135.834 47.8436 136.847 45.7433 136.847 42.8553V25.5274H130.996V27.5903H130.921C129.796 25.9775 128.071 24.9648 125.52 24.9648C120.757 24.9648 117.456 28.9405 117.456 34.5664C117.456 40.4549 121.469 43.6804 125.783 43.6804C128.108 43.6804 129.571 42.7428 130.696 41.4676H130.846V43.3804C130.846 45.7058 129.758 47.056 127.17 47.056C125.145 47.056 124.132 46.1933 123.795 45.1807H117.869C118.469 49.1938 121.957 51.3692 127.245 51.3692ZM127.208 39.1422C124.92 39.1422 123.42 37.2669 123.42 34.3789C123.42 31.4534 124.92 29.5781 127.208 29.5781C129.758 29.5781 131.109 31.7535 131.109 34.3414C131.109 37.0418 129.871 39.1422 127.208 39.1422Z" fill="#3C2B1F"/>
<path d="M148.877 40.9796C146.214 40.9796 144.827 38.6542 144.827 35.1661C144.827 31.6781 146.214 29.3152 148.877 29.3152C151.54 29.3152 152.966 31.6781 152.966 35.1661C152.966 38.6542 151.54 40.9796 148.877 40.9796ZM148.915 45.3303C155.103 45.3303 159.153 40.9421 159.153 35.1661C159.153 29.3902 155.103 25.002 148.915 25.002C142.764 25.002 138.638 29.3902 138.638 35.1661C138.638 40.9421 142.764 45.3303 148.915 45.3303Z" fill="#3C2B1F"/>
<path d="M160.94 44.7305H167.053V25.5273H160.94V44.7305ZM160.94 22.8644H167.053V17.9136H160.94V22.8644Z" fill="#3C2B1F"/>
<path d="M169.706 51.0691H175.819V42.7428H175.894C177.094 44.3555 178.857 45.3307 181.332 45.3307C186.358 45.3307 189.696 41.355 189.696 35.129C189.696 29.3531 186.583 24.9648 181.482 24.9648C178.857 24.9648 176.982 26.1275 175.669 27.8528H175.557V25.5274H169.706V51.0691ZM179.757 40.6049C177.132 40.6049 175.632 38.4671 175.632 35.3541C175.632 32.241 176.982 29.8782 179.645 29.8782C182.27 29.8782 183.508 32.0535 183.508 35.3541C183.508 38.6171 182.083 40.6049 179.757 40.6049Z" fill="#3C2B1F"/>
<path d="M199.649 45.3307C204.675 45.3307 208.388 43.1553 208.388 38.9546C208.388 34.0413 204.413 33.1787 201.037 32.6161C198.599 32.166 196.424 31.9785 196.424 30.6283C196.424 29.4281 197.586 28.8655 199.087 28.8655C200.775 28.8655 201.937 29.3906 202.162 31.1159H207.788C207.488 27.3277 204.563 24.9648 199.124 24.9648C194.586 24.9648 190.835 27.0652 190.835 31.1159C190.835 35.6166 194.398 36.5167 197.737 37.0793C200.287 37.5294 202.612 37.7169 202.612 39.4422C202.612 40.6799 201.45 41.355 199.612 41.355C197.587 41.355 196.311 40.4174 196.086 38.5046H190.31C190.498 42.7428 194.023 45.3307 199.649 45.3307Z" fill="#3C2B1F"/>
<path d="M216.693 45.2931C219.356 45.2931 221.043 44.2429 222.431 42.3676H222.544V44.7305H228.395V25.5273H222.281V36.2541C222.281 38.542 221.006 40.1172 218.906 40.1172C216.955 40.1172 216.018 38.9546 216.018 36.8542V25.5273H209.942V38.1294C209.942 42.4051 212.267 45.2931 216.693 45.2931Z" fill="#3C2B1F"/>
<path d="M231.055 44.7306H237.168V33.9663C237.168 31.6784 238.293 30.0657 240.206 30.0657C242.044 30.0657 242.907 31.2659 242.907 33.3287V44.7306H249.02V33.9663C249.02 31.6784 250.108 30.0657 252.058 30.0657C253.896 30.0657 254.759 31.2659 254.759 33.3287V44.7306H260.872V32.241C260.872 27.9278 258.697 24.9648 254.346 24.9648C251.871 24.9648 249.808 26.015 248.308 28.3404H248.233C247.257 26.2776 245.345 24.9648 242.832 24.9648C240.056 24.9648 238.218 26.2776 237.018 28.2654H236.906V25.5274H231.055V44.7306Z" fill="#3C2B1F"/>
<path d="M39.2135 2.57417L33.0672 0.927246L27.8876 20.2579L23.2113 2.80605L17.0649 4.45298L22.1173 23.3084L9.53294 10.7241L5.03346 15.2236L18.8369 29.0271L1.64692 24.4211L0 30.5674L18.7822 35.6001C18.5671 34.6726 18.4534 33.7062 18.4534 32.7132C18.4534 25.6846 24.1512 19.9867 31.1798 19.9867C38.2085 19.9867 43.9063 25.6846 43.9063 32.7132C43.9063 33.6998 43.794 34.6602 43.5816 35.5823L60.6511 40.156L62.2979 34.0097L43.4411 28.957L60.6322 24.3506L58.9852 18.2043L40.1291 23.2567L52.7134 10.6725L48.2139 6.173L34.602 19.785L39.2135 2.57417Z" fill="#F97316"/>
<path d="M43.5649 35.6533C43.038 37.8812 41.9254 39.8826 40.3989 41.4862L52.765 53.8524L57.2645 49.3529L43.5649 35.6533Z" fill="#F97316"/>
<path d="M40.2734 41.6157C38.7284 43.1936 36.7761 44.3712 34.5867 44.978L39.0865 61.7714L45.2328 60.1244L40.2734 41.6157Z" fill="#F97316"/>
<path d="M34.3575 45.0398C33.3417 45.3009 32.277 45.4397 31.1798 45.4397C30.0043 45.4397 28.866 45.2803 27.7854 44.9819L23.2815 61.7906L29.4278 63.4375L34.3575 45.0398Z" fill="#F97316"/>
<path d="M27.568 44.9198C25.412 44.2828 23.4944 43.0903 21.981 41.5078L9.58447 53.9044L14.0839 58.4039L27.568 44.9198Z" fill="#F97316"/>
<path d="M21.8774 41.3978C20.3899 39.8054 19.3065 37.8307 18.7908 35.6372L1.66553 40.2259L3.31244 46.3723L21.8774 41.3978Z" fill="#F97316"/>
</svg>
