<svg width="227" height="52" viewBox="0 0 227 52" fill="none" xmlns="http://www.w3.org/2000/svg">
<path d="M0.777344 51.6357H51.6836V0.729492H0.777344V51.6357ZM41.8854 21.2845H31.1286V10.5277H41.8854V21.2845ZM10.5736 10.5277H21.3364V31.0807H41.8854V41.8375H10.5736V10.5277ZM84.8332 0.729492C79.799 0.729492 74.8778 2.22231 70.6922 5.01913C66.5064 7.81596 63.244 11.7912 61.3175 16.4422C59.391 21.0932 58.8871 26.2108 59.8691 31.1482C60.8513 36.0856 63.2754 40.6209 66.835 44.1806C70.3947 47.7405 74.93 50.1645 79.8674 51.1467C84.805 52.1287 89.9227 51.6248 94.5737 49.6983C99.2247 47.7718 103.2 44.5095 105.997 40.3236C108.793 36.1378 110.286 31.2167 110.286 26.1826C110.278 19.4344 107.594 12.9649 102.822 8.19326C98.0508 3.42157 91.5814 0.737371 84.8332 0.729492ZM84.8332 41.8375C81.737 41.8375 78.7102 40.9194 76.1357 39.1991C73.5614 37.479 71.5547 35.0341 70.3699 32.1735C69.1851 29.313 68.8751 26.1653 69.479 23.1284C70.0831 20.0917 71.5742 17.3023 73.7635 15.1129C75.9529 12.9236 78.7423 11.4326 81.779 10.8285C84.8158 10.2245 87.9634 10.5345 90.8241 11.7194C93.6846 12.9042 96.1296 14.9108 97.8497 17.4853C99.57 20.0596 100.488 23.0864 100.488 26.1826C100.482 30.3327 98.8304 34.3109 95.8959 37.2454C92.9613 40.1799 88.9831 41.8312 84.8332 41.8375ZM201.37 0.729492C196.335 0.729115 191.414 2.22157 187.228 5.01816C183.042 7.81475 179.78 11.7898 177.853 16.4408C175.926 21.0916 175.422 26.2096 176.404 31.147C177.385 36.0846 179.809 40.6201 183.369 44.18C186.929 47.7399 191.464 50.1643 196.402 51.1465C201.338 52.1287 206.456 51.6248 211.108 49.6985C215.759 47.772 219.734 44.5097 222.53 40.3238C225.329 36.138 226.821 31.2169 226.821 26.1826C226.813 19.4348 224.13 12.9656 219.359 8.19395C214.588 3.42232 208.118 0.737907 201.37 0.729492ZM201.37 41.8375C198.274 41.8379 195.247 40.92 192.672 39.2001C190.097 37.4802 188.09 35.0353 186.905 32.1749C185.72 29.3144 185.41 26.1665 186.013 23.1296C186.617 20.0929 188.108 17.3033 190.297 15.1136C192.487 12.924 195.277 11.4329 198.313 10.8287C201.35 10.2244 204.498 10.5344 207.358 11.7192C210.219 12.904 212.664 14.9105 214.385 17.4851C216.104 20.0596 217.023 23.0864 217.023 26.1826C217.017 30.3323 215.366 34.3101 212.43 37.2446C209.497 40.1791 205.52 41.8308 201.37 41.8375ZM143.101 0.729492C138.066 0.729492 133.145 2.22231 128.96 5.01913C124.774 7.81596 121.511 11.7912 119.585 16.4422C117.658 21.0932 117.154 26.2108 118.136 31.1482C119.119 36.0856 121.543 40.6209 125.102 44.1806C128.662 47.7405 133.197 50.1645 138.135 51.1467C143.072 52.1287 148.19 51.6248 152.841 49.6983C157.492 47.7718 161.467 44.5095 164.264 40.3236C167.061 36.1378 168.554 31.2167 168.554 26.1826C168.546 19.4344 165.861 12.9649 161.09 8.19326C156.318 3.42157 149.849 0.737371 143.101 0.729492ZM143.101 41.8375C140.216 41.8389 137.387 41.0433 134.926 39.5383C132.465 38.0333 130.467 35.8778 129.154 33.3093C127.841 30.7408 127.263 27.8592 127.484 24.9831C127.705 22.1067 128.716 19.3475 130.407 17.0098C132.097 14.6722 134.4 12.847 137.062 11.7358C139.724 10.6246 142.642 10.2705 145.492 10.7128C148.343 11.155 151.016 12.3763 153.216 14.2418C155.417 16.1073 157.059 18.5447 157.962 21.2845H143.101V31.0807H157.962C156.928 34.2071 154.936 36.9289 152.268 38.8596C149.601 40.7904 146.393 41.8322 143.101 41.8375Z" fill="#394149"/>
</svg>
