<svg width="42" height="42" viewBox="0 0 42 42" fill="none" xmlns="http://www.w3.org/2000/svg">
<g clip-path="url(#clip0_119_156)">
<path d="M37.6706 14.497L24.3899 1.53821C23.2366 0.383207 21.5776 -0.182043 19.9659 0.0489572L7.91187 1.69746C6.95462 1.82871 6.28437 2.71071 6.41562 3.66796C6.54687 4.62521 7.42712 5.29371 8.38787 5.16421L20.4436 3.51571C20.9791 3.44221 21.5321 3.62596 21.9329 4.02671L35.2154 16.9855C37.0441 18.8142 37.2226 21.6755 35.7806 23.7177C35.3711 22.9005 34.8654 22.1217 34.1864 21.4427L21.1051 8.47171C19.9536 7.32021 18.3104 6.76546 16.6811 6.98246L4.62537 8.63096C3.83087 8.73946 3.21137 9.37471 3.12387 10.1727L1.78512 22.2757C1.61012 23.87 2.15962 25.4327 3.29712 26.5685L16.2751 39.4362C17.9271 41.09 20.1234 41.9982 22.4596 41.9982H22.4894C24.8379 41.9912 27.0394 41.0672 28.6896 39.396L34.2319 33.782C35.8541 32.1387 36.6696 30.0037 36.7221 27.853L37.7319 26.845C41.1006 23.4325 41.0814 17.899 37.6759 14.4952L37.6706 14.497ZM10.5001 17.5C9.53412 17.5 8.75012 16.716 8.75012 15.75C8.76062 13.461 12.2396 13.4627 12.2501 15.75C12.2501 16.716 11.4661 17.5 10.5001 17.5Z" fill="black"/>
</g>
<defs>
<clipPath id="clip0_119_156">
<rect width="42" height="42" fill="white"/>
</clipPath>
</defs>
</svg>
