<svg width="43" height="42" viewBox="0 0 43 42" fill="none" xmlns="http://www.w3.org/2000/svg">
<g clip-path="url(#clip0_119_151)">
<path d="M4 25.375C4 21.9975 6.7475 19.25 10.125 19.25C13.5025 19.25 16.25 21.9975 16.25 25.375C16.25 28.7525 13.5025 31.5 10.125 31.5C6.7475 31.5 4 28.7525 4 25.375ZM26.75 25.375C26.75 28.7525 29.4975 31.5 32.875 31.5C36.2525 31.5 39 28.7525 39 25.375C39 21.9975 36.2525 19.25 32.875 19.25C29.4975 19.25 26.75 21.9975 26.75 25.375ZM37.25 33.25H28.5C25.6055 33.25 23.25 35.6055 23.25 38.5V42H42.5V38.5C42.5 35.6055 40.1445 33.25 37.25 33.25ZM26.624 15.75H32V3.584C32 1.60825 30.3917 0 28.416 0H14.584C12.6083 0 11 1.6065 11 3.584V15.75H16.6035L19.813 18.5798C20.3205 19.0278 20.9557 19.2518 21.591 19.2518C22.2175 19.2518 22.844 19.0312 23.3375 18.5938L26.624 15.7518V15.75ZM14.5 33.25H5.75C2.8555 33.25 0.5 35.6055 0.5 38.5V42H19.75V38.5C19.75 35.6055 17.3945 33.25 14.5 33.25Z" fill="black"/>
</g>
<defs>
<clipPath id="clip0_119_151">
<rect width="42" height="42" fill="white" transform="translate(0.5)"/>
</clipPath>
</defs>
</svg>
