<svg width="43" height="42" viewBox="0 0 43 42" fill="none" xmlns="http://www.w3.org/2000/svg">
<g clip-path="url(#clip0_119_147)">
<path d="M33.7086 8.75H28.4586V7C28.4586 5.60761 27.9055 4.27226 26.9209 3.28769C25.9364 2.30312 24.601 1.75 23.2086 1.75H19.7086C18.3162 1.75 16.9809 2.30312 15.9963 3.28769C15.0117 4.27226 14.4586 5.60761 14.4586 7V8.75H9.20862C6.88883 8.75278 4.66484 9.67554 3.0245 11.3159C1.38416 12.9562 0.461397 15.1802 0.458618 17.5L0.458618 31.5C0.461397 33.8198 1.38416 36.0438 3.0245 37.6841C4.66484 39.3245 6.88883 40.2472 9.20862 40.25H33.7086C36.0284 40.2472 38.2524 39.3245 39.8927 37.6841C41.5331 36.0438 42.4558 33.8198 42.4586 31.5V17.5C42.4558 15.1802 41.5331 12.9562 39.8927 11.3159C38.2524 9.67554 36.0284 8.75278 33.7086 8.75ZM17.9586 7C17.9586 6.53587 18.143 6.09075 18.4712 5.76256C18.7994 5.43437 19.2445 5.25 19.7086 5.25H23.2086C23.6727 5.25 24.1179 5.43437 24.4461 5.76256C24.7742 6.09075 24.9586 6.53587 24.9586 7V8.75H17.9586V7ZM26.7086 26.25H23.2086V29.75C23.2086 30.2141 23.0242 30.6593 22.6961 30.9874C22.3679 31.3156 21.9227 31.5 21.4586 31.5C20.9945 31.5 20.5494 31.3156 20.2212 30.9874C19.893 30.6593 19.7086 30.2141 19.7086 29.75V26.25H16.2086C15.7445 26.25 15.2994 26.0656 14.9712 25.7374C14.643 25.4092 14.4586 24.9641 14.4586 24.5C14.4586 24.0359 14.643 23.5908 14.9712 23.2626C15.2994 22.9344 15.7445 22.75 16.2086 22.75H19.7086V19.25C19.7086 18.7859 19.893 18.3408 20.2212 18.0126C20.5494 17.6844 20.9945 17.5 21.4586 17.5C21.9227 17.5 22.3679 17.6844 22.6961 18.0126C23.0242 18.3408 23.2086 18.7859 23.2086 19.25V22.75H26.7086C27.1727 22.75 27.6179 22.9344 27.9461 23.2626C28.2742 23.5908 28.4586 24.0359 28.4586 24.5C28.4586 24.9641 28.2742 25.4092 27.9461 25.7374C27.6179 26.0656 27.1727 26.25 26.7086 26.25Z" fill="black"/>
</g>
<defs>
<clipPath id="clip0_119_147">
<rect width="42" height="42" fill="white" transform="translate(0.458618)"/>
</clipPath>
</defs>
</svg>
